<svg data-v-423bf9ae="" xmlns="http://www.w3.org/2000/svg" viewBox="0 0 472.8240599666876 184" class="iconAboveSlogan"><!----><!----><!----><g data-v-423bf9ae="" id="8bb2457e-eb53-46ac-b3df-5737ad7e41f3" fill="#391117" transform="matrix(4.629629616002596,0,0,4.629629616002596,-0.6481482550386204,88.50925829525565)"><path d="M3.36 13.77L3.36 13.77L3.36 13.77Q2.63 13.77 2.02 13.41L2.02 13.41L2.02 13.41Q1.42 13.04 1.00 12.41L1.00 12.41L1.00 12.41Q0.59 11.79 0.36 10.94L0.36 10.94L0.36 10.94Q0.14 10.09 0.14 9.11L0.14 9.11L0.14 9.11Q0.14 7.70 0.46 6.59L0.46 6.59L0.46 6.59Q0.79 5.48 1.33 4.72L1.33 4.72L1.33 4.72Q1.87 3.95 2.56 3.54L2.56 3.54L2.56 3.54Q3.25 3.13 3.98 3.13L3.98 3.13L3.98 3.13Q4.66 3.13 5.13 3.38L5.13 3.38L5.13 3.38Q5.59 3.62 5.87 4.01L5.87 4.01L5.87 4.01Q6.15 4.39 6.25 4.85L6.25 4.85L6.25 4.85Q6.36 5.30 6.32 5.71L6.32 5.71L6.32 5.71Q6.25 6.51 5.78 7L5.78 7L5.78 7Q5.30 7.49 4.69 7.49L4.69 7.49L4.69 7.49Q4.48 7.48 4.27 7.42L4.27 7.42L4.27 7.42Q4.07 7.37 3.87 7.26L3.87 7.26L3.87 7.26Q3.66 7.15 3.49 6.95L3.49 6.95L3.49 6.95Q4.06 6.99 4.38 6.71L4.38 6.71L4.38 6.71Q4.69 6.44 4.84 6.10L4.84 6.10L4.84 6.10Q5.00 5.70 5.03 5.17L5.03 5.17L5.03 5.17Q5.03 4.87 4.94 4.64L4.94 4.64L4.94 4.64Q4.84 4.42 4.68 4.27L4.68 4.27L4.68 4.27Q4.53 4.13 4.35 4.06L4.35 4.06L4.35 4.06Q4.17 3.99 4.01 3.99L4.01 3.99L4.01 3.99Q3.64 3.99 3.21 4.28L3.21 4.28L3.21 4.28Q2.78 4.57 2.39 5.15L2.39 5.15L2.39 5.15Q2.01 5.73 1.76 6.62L1.76 6.62L1.76 6.62Q1.50 7.52 1.50 8.75L1.50 8.75L1.50 8.75Q1.50 9.97 1.72 10.74L1.72 10.74L1.72 10.74Q1.94 11.51 2.26 11.94L2.26 11.94L2.26 11.94Q2.57 12.37 2.92 12.53L2.92 12.53L2.92 12.53Q3.27 12.69 3.51 12.69L3.51 12.69L3.51 12.69Q3.99 12.65 4.39 12.36L4.39 12.36L4.39 12.36Q4.73 12.11 5.04 11.57L5.04 11.57L5.04 11.57Q5.35 11.03 5.46 10.02L5.46 10.02L5.46 10.02Q5.63 10.04 5.75 10.10L5.75 10.10L5.75 10.10Q5.87 10.17 5.95 10.24L5.95 10.24L5.95 10.24Q6.03 10.32 6.10 10.43L6.10 10.43L6.10 10.43Q6.11 10.45 6.10 10.71L6.10 10.71L6.10 10.71Q6.08 10.96 6.00 11.33L6.00 11.33L6.00 11.33Q5.92 11.70 5.75 12.13L5.75 12.13L5.75 12.13Q5.58 12.55 5.27 12.92L5.27 12.92L5.27 12.92Q4.96 13.29 4.50 13.53L4.50 13.53L4.50 13.53Q4.03 13.77 3.36 13.77ZM8.19 10.42L8.19 10.42L8.19 10.42Q8.35 9.93 8.47 9.58L8.47 9.58L8.47 9.58Q8.59 9.24 8.67 9.04L8.67 9.04L8.67 9.04Q8.76 8.79 8.83 8.64L8.83 8.64L8.83 8.64Q8.91 8.42 9.02 8.20L9.02 8.20L9.02 8.20Q9.12 7.98 9.23 7.80L9.23 7.80L9.23 7.80Q9.34 7.62 9.43 7.49L9.43 7.49L9.43 7.49Q9.53 7.37 9.60 7.33L9.60 7.33L9.60 7.33Q9.65 7.30 9.85 7.33L9.85 7.33L9.85 7.33Q10.05 7.36 10.29 7.46L10.29 7.46L10.29 7.46Q10.53 7.56 10.74 7.74L10.74 7.74L10.74 7.74Q10.95 7.92 11.03 8.18L11.03 8.18L11.03 8.18Q11.12 8.49 11.09 9.00L11.09 9.00L11.09 9.00Q11.06 9.50 11.01 10.04L11.01 10.04L11.01 10.04Q10.96 10.57 10.94 11.05L10.94 11.05L10.94 11.05Q10.92 11.53 11.01 11.77L11.01 11.77L11.01 11.77Q11.06 11.91 11.12 12.04L11.12 12.04L11.12 12.04Q11.17 12.15 11.25 12.27L11.25 12.27L11.25 12.27Q11.32 12.39 11.42 12.47L11.42 12.47L11.42 12.47Q11.02 12.62 10.78 12.69L10.78 12.69L10.78 12.69Q10.54 12.77 10.42 12.80L10.42 12.80L10.42 12.80Q10.27 12.84 10.21 12.81L10.21 12.81L10.21 12.81Q10.10 12.77 10.01 12.61L10.01 12.61L10.01 12.61Q9.91 12.44 9.84 12.09L9.84 12.09L9.84 12.09Q9.82 11.98 9.83 11.70L9.83 11.70L9.83 11.70Q9.84 11.43 9.87 11.09L9.87 11.09L9.87 11.09Q9.90 10.75 9.93 10.37L9.93 10.37L9.93 10.37Q9.95 9.99 9.98 9.67L9.98 9.67L9.98 9.67Q10.01 9.34 10.01 9.09L10.01 9.09L10.01 9.09Q10.02 8.85 10.01 8.76L10.01 8.76L10.01 8.76Q9.94 8.53 9.82 8.43L9.82 8.43L9.82 8.43Q9.69 8.33 9.63 8.41L9.63 8.41L9.63 8.41Q9.46 8.61 9.26 9.11L9.26 9.11L9.26 9.11Q9.06 9.61 8.89 10.19L8.89 10.19L8.89 10.19Q8.71 10.77 8.58 11.35L8.58 11.35L8.58 11.35Q8.45 11.92 8.42 12.29L8.42 12.29L8.42 12.29Q8.42 12.37 8.29 12.46L8.29 12.46L8.29 12.46Q8.16 12.55 8.00 12.62L8.00 12.62L8.00 12.62Q7.85 12.69 7.70 12.71L7.70 12.71L7.70 12.71Q7.55 12.73 7.49 12.66L7.49 12.66L7.49 12.66Q7.45 12.62 7.32 12.47L7.32 12.47L7.32 12.47Q7.19 12.32 7.18 11.96L7.18 11.96L7.18 11.96Q7.15 11.62 7.18 11.03L7.18 11.03L7.18 11.03Q7.21 10.43 7.19 9.78L7.19 9.78L7.19 8.76L7.19 8.76Q7.19 8.15 7.18 7.06L7.18 7.06L7.18 7.06Q7.18 5.97 7.16 4.18L7.16 4.18L7.16 4.18Q7.31 4.10 7.44 4.04L7.44 4.04L7.44 4.04Q7.56 3.98 7.67 3.94L7.67 3.94L7.67 3.94Q7.79 3.88 7.90 3.86L7.90 3.86L7.90 3.86Q8.49 3.71 8.52 3.86L8.52 3.86L8.52 3.86Q8.53 3.99 8.49 4.73L8.49 4.73L8.49 4.73Q8.48 5.04 8.45 5.52L8.45 5.52L8.45 5.52Q8.42 6.00 8.39 6.69L8.39 6.69L8.39 6.69Q8.35 7.37 8.31 8.29L8.31 8.29L8.31 8.29Q8.26 9.21 8.19 10.42ZM13.90 12.71L13.90 12.71L13.90 12.71Q12.95 12.71 12.43 12.07L12.43 12.07L12.43 12.07Q11.91 11.43 11.91 10.39L11.91 10.39L11.91 10.39Q11.91 9.67 12.12 9.03L12.12 9.03L12.12 9.03Q12.33 8.39 12.69 7.93L12.69 7.93L12.69 7.93Q13.04 7.46 13.51 7.20L13.51 7.20L13.51 7.20Q13.99 6.93 14.51 6.93L14.51 6.93L14.51 6.93Q15.01 6.93 15.37 7.29L15.37 7.29L15.37 7.29Q15.72 7.66 15.72 8.33L15.72 8.33L15.72 8.33Q15.72 8.76 15.53 9.19L15.53 9.19L15.53 9.19Q15.34 9.63 15.03 9.96L15.03 9.96L15.03 9.96Q14.72 10.29 14.36 10.50L14.36 10.50L14.36 10.50Q13.99 10.71 13.64 10.71L13.64 10.71L13.64 10.71Q13.43 10.71 13.28 10.65L13.28 10.65L13.28 10.65Q13.13 10.60 13.00 10.49L13.00 10.49L13.00 10.49Q13.04 11.27 13.34 11.57L13.34 11.57L13.34 11.57Q13.64 11.88 14.12 11.88L14.12 11.88L14.12 11.88Q14.45 11.88 14.70 11.74L14.70 11.74L14.70 11.74Q14.96 11.61 15.13 11.43L15.13 11.43L15.13 11.43Q15.31 11.25 15.42 11.07L15.42 11.07L15.42 11.07Q15.53 10.88 15.57 10.79L15.57 10.79L15.57 10.79Q15.61 10.71 15.72 10.71L15.72 10.71L15.72 10.71Q15.82 10.71 15.82 10.87L15.82 10.87L15.82 10.87Q15.82 11.02 15.72 11.33L15.72 11.33L15.72 11.33Q15.61 11.63 15.38 11.94L15.38 11.94L15.38 11.94Q15.15 12.25 14.79 12.48L14.79 12.48L14.79 12.48Q14.42 12.71 13.90 12.71ZM14.53 7.52L14.53 7.52L14.53 7.52Q14.45 7.52 14.23 7.69L14.23 7.69L14.23 7.69Q14 7.86 13.75 8.19L13.75 8.19L13.75 8.19Q13.49 8.52 13.28 8.98L13.28 8.98L13.28 8.98Q13.07 9.43 13.02 10.01L13.02 10.01L13.02 10.01Q13.84 9.82 14.31 9.41L14.31 9.41L14.31 9.41Q14.79 9.00 14.79 8.20L14.79 8.20L14.79 8.20Q14.79 7.81 14.70 7.66L14.70 7.66L14.70 7.66Q14.60 7.52 14.53 7.52ZM18.44 12.71L18.44 12.71L18.44 12.71Q17.49 12.71 16.97 12.07L16.97 12.07L16.97 12.07Q16.45 11.43 16.45 10.39L16.45 10.39L16.45 10.39Q16.45 9.67 16.66 9.03L16.66 9.03L16.66 9.03Q16.87 8.39 17.23 7.93L17.23 7.93L17.23 7.93Q17.58 7.46 18.05 7.20L18.05 7.20L18.05 7.20Q18.53 6.93 19.04 6.93L19.04 6.93L19.04 6.93Q19.55 6.93 19.91 7.29L19.91 7.29L19.91 7.29Q20.26 7.66 20.26 8.33L20.26 8.33L20.26 8.33Q20.26 8.76 20.07 9.19L20.07 9.19L20.07 9.19Q19.88 9.63 19.57 9.96L19.57 9.96L19.57 9.96Q19.26 10.29 18.89 10.50L18.89 10.50L18.89 10.50Q18.53 10.71 18.18 10.71L18.18 10.71L18.18 10.71Q17.96 10.71 17.81 10.65L17.81 10.65L17.81 10.65Q17.66 10.60 17.54 10.49L17.54 10.49L17.54 10.49Q17.58 11.27 17.88 11.57L17.88 11.57L17.88 11.57Q18.18 11.88 18.66 11.88L18.66 11.88L18.66 11.88Q18.99 11.88 19.24 11.74L19.24 11.74L19.24 11.74Q19.50 11.61 19.67 11.43L19.67 11.43L19.67 11.43Q19.85 11.25 19.96 11.07L19.96 11.07L19.96 11.07Q20.07 10.88 20.11 10.79L20.11 10.79L20.11 10.79Q20.15 10.71 20.25 10.71L20.25 10.71L20.25 10.71Q20.36 10.71 20.36 10.87L20.36 10.87L20.36 10.87Q20.36 11.02 20.25 11.33L20.25 11.33L20.25 11.33Q20.15 11.63 19.92 11.94L19.92 11.94L19.92 11.94Q19.69 12.25 19.33 12.48L19.33 12.48L19.33 12.48Q18.96 12.71 18.44 12.71ZM19.07 7.52L19.07 7.52L19.07 7.52Q18.99 7.52 18.76 7.69L18.76 7.69L18.76 7.69Q18.54 7.86 18.29 8.19L18.29 8.19L18.29 8.19Q18.03 8.52 17.82 8.98L17.82 8.98L17.82 8.98Q17.61 9.43 17.55 10.01L17.55 10.01L17.55 10.01Q18.38 9.82 18.85 9.41L18.85 9.41L18.85 9.41Q19.33 9.00 19.33 8.20L19.33 8.20L19.33 8.20Q19.33 7.81 19.24 7.66L19.24 7.66L19.24 7.66Q19.14 7.52 19.07 7.52ZM23.31 9.97L23.31 9.97L23.31 9.97Q23.61 10.08 23.88 10.17L23.88 10.17L23.88 10.17Q24.16 10.27 24.36 10.40L24.36 10.40L24.36 10.40Q24.57 10.54 24.69 10.73L24.69 10.73L24.69 10.73Q24.81 10.91 24.81 11.18L24.81 11.18L24.81 11.18Q24.81 11.51 24.67 11.80L24.67 11.80L24.67 11.80Q24.53 12.09 24.25 12.30L24.25 12.30L24.25 12.30Q23.98 12.52 23.59 12.65L23.59 12.65L23.59 12.65Q23.20 12.78 22.72 12.78L22.72 12.78L22.72 12.78Q22.19 12.78 21.86 12.68L21.86 12.68L21.86 12.68Q21.53 12.58 21.36 12.44L21.36 12.44L21.36 12.44Q21.18 12.30 21.12 12.17L21.12 12.17L21.12 12.17Q21.07 12.03 21.07 11.95L21.07 11.95L21.07 11.95Q21.07 11.79 21.14 11.59L21.14 11.59L21.14 11.59Q21.21 11.39 21.40 11.16L21.40 11.16L21.40 11.16Q21.48 11.06 21.57 10.98L21.57 10.98L21.57 10.98Q21.77 10.81 21.96 10.77L21.96 10.77L21.96 10.77Q21.93 11.09 22.03 11.29L22.03 11.29L22.03 11.29Q22.13 11.48 22.31 11.59L22.31 11.59L22.31 11.59Q22.48 11.70 22.69 11.74L22.69 11.74L22.69 11.74Q22.90 11.79 23.09 11.79L23.09 11.79L23.09 11.79Q23.28 11.79 23.48 11.73L23.48 11.73L23.48 11.73Q23.68 11.68 23.84 11.59L23.84 11.59L23.84 11.59Q24.01 11.50 24.11 11.38L24.11 11.38L24.11 11.38Q24.21 11.27 24.21 11.13L24.21 11.13L24.21 11.13Q24.21 10.98 24.09 10.88L24.09 10.88L24.09 10.88Q23.97 10.79 23.78 10.73L23.78 10.73L23.78 10.73Q23.60 10.66 23.39 10.63L23.39 10.63L23.39 10.63Q23.17 10.60 22.98 10.55L22.98 10.55L22.98 10.55Q22.79 10.51 22.47 10.44L22.47 10.44L22.47 10.44Q22.15 10.36 21.84 10.20L21.84 10.20L21.84 10.20Q21.53 10.04 21.31 9.76L21.31 9.76L21.31 9.76Q21.08 9.49 21.08 9.04L21.08 9.04L21.08 9.04Q21.08 8.52 21.35 8.13L21.35 8.13L21.35 8.13Q21.62 7.74 22.00 7.47L22.00 7.47L22.00 7.47Q22.39 7.21 22.83 7.07L22.83 7.07L22.83 7.07Q23.27 6.93 23.61 6.93L23.61 6.93L23.61 6.93Q23.79 6.93 23.99 6.98L23.99 6.98L23.99 6.98Q24.20 7.03 24.38 7.14L24.38 7.14L24.38 7.14Q24.55 7.26 24.67 7.45L24.67 7.45L24.67 7.45Q24.79 7.64 24.79 7.94L24.79 7.94L24.79 7.94Q24.79 8.24 24.74 8.43L24.74 8.43L24.74 8.43Q24.69 8.61 24.60 8.72L24.60 8.72L24.60 8.72Q24.51 8.82 24.39 8.85L24.39 8.85L24.39 8.85Q24.27 8.87 24.10 8.87L24.10 8.87L24.10 8.87Q23.99 8.87 23.90 8.85L23.90 8.85L23.90 8.85Q23.82 8.82 23.72 8.79L23.72 8.79L23.72 8.79Q23.63 8.76 23.54 8.70L23.54 8.70L23.54 8.70Q23.68 8.53 23.75 8.38L23.75 8.38L23.75 8.38Q23.83 8.23 23.83 8.01L23.83 8.01L23.83 8.01Q23.83 7.82 23.73 7.67L23.73 7.67L23.73 7.67Q23.63 7.52 23.39 7.52L23.39 7.52L23.39 7.52Q23.15 7.52 22.92 7.62L22.92 7.62L22.92 7.62Q22.70 7.71 22.52 7.88L22.52 7.88L22.52 7.88Q22.35 8.04 22.25 8.25L22.25 8.25L22.25 8.25Q22.15 8.46 22.15 8.71L22.15 8.71L22.15 8.71Q22.15 9.08 22.43 9.41L22.43 9.41L22.43 9.41Q22.71 9.73 23.31 9.97ZM27.44 12.71L27.44 12.71L27.44 12.71Q26.48 12.71 25.96 12.07L25.96 12.07L25.96 12.07Q25.44 11.43 25.44 10.39L25.44 10.39L25.44 10.39Q25.44 9.67 25.66 9.03L25.66 9.03L25.66 9.03Q25.87 8.39 26.22 7.93L26.22 7.93L26.22 7.93Q26.58 7.46 27.05 7.20L27.05 7.20L27.05 7.20Q27.52 6.93 28.04 6.93L28.04 6.93L28.04 6.93Q28.55 6.93 28.90 7.29L28.90 7.29L28.90 7.29Q29.26 7.66 29.26 8.33L29.26 8.33L29.26 8.33Q29.26 8.76 29.07 9.19L29.07 9.19L29.07 9.19Q28.88 9.63 28.57 9.96L28.57 9.96L28.57 9.96Q28.26 10.29 27.89 10.50L27.89 10.50L27.89 10.50Q27.52 10.71 27.18 10.71L27.18 10.71L27.18 10.71Q26.96 10.71 26.81 10.65L26.81 10.65L26.81 10.65Q26.66 10.60 26.54 10.49L26.54 10.49L26.54 10.49Q26.58 11.27 26.88 11.57L26.88 11.57L26.88 11.57Q27.18 11.88 27.66 11.88L27.66 11.88L27.66 11.88Q27.99 11.88 28.24 11.74L28.24 11.74L28.24 11.74Q28.49 11.61 28.67 11.43L28.67 11.43L28.67 11.43Q28.85 11.25 28.96 11.07L28.96 11.07L28.96 11.07Q29.07 10.88 29.11 10.79L29.11 10.79L29.11 10.79Q29.15 10.71 29.25 10.71L29.25 10.71L29.25 10.71Q29.35 10.71 29.35 10.87L29.35 10.87L29.35 10.87Q29.35 11.02 29.25 11.33L29.25 11.33L29.25 11.33Q29.15 11.63 28.92 11.94L28.92 11.94L28.92 11.94Q28.68 12.25 28.32 12.48L28.32 12.48L28.32 12.48Q27.96 12.71 27.44 12.71ZM28.07 7.52L28.07 7.52L28.07 7.52Q27.99 7.52 27.76 7.69L27.76 7.69L27.76 7.69Q27.54 7.86 27.28 8.19L27.28 8.19L27.28 8.19Q27.03 8.52 26.82 8.98L26.82 8.98L26.82 8.98Q26.61 9.43 26.55 10.01L26.55 10.01L26.55 10.01Q27.37 9.82 27.85 9.41L27.85 9.41L27.85 9.41Q28.33 9.00 28.33 8.20L28.33 8.20L28.33 8.20Q28.33 7.81 28.23 7.66L28.23 7.66L28.23 7.66Q28.14 7.52 28.07 7.52ZM33.89 10.84L33.89 10.84L33.89 10.84Q33.89 10.99 33.79 11.30L33.79 11.30L33.79 11.30Q33.69 11.61 33.46 11.92L33.46 11.92L33.46 11.92Q33.22 12.22 32.86 12.46L32.86 12.46L32.86 12.46Q32.50 12.69 31.98 12.69L31.98 12.69L31.98 12.69Q31.24 12.69 30.74 12.28L30.74 12.28L30.74 12.28Q30.24 11.88 30.04 11.13L30.04 11.13L30.04 11.13Q29.87 10.50 29.95 9.78L29.95 9.78L29.95 9.78Q30.02 9.06 30.34 8.45L30.34 8.45L30.34 8.45Q30.65 7.83 31.21 7.40L31.21 7.40L31.21 7.40Q31.77 6.97 32.58 6.93L32.58 6.93L32.58 6.93Q32.99 6.92 33.26 7.08L33.26 7.08L33.26 7.08Q33.54 7.25 33.69 7.51L33.69 7.51L33.69 7.51Q33.84 7.77 33.87 8.07L33.87 8.07L33.87 8.07Q33.89 8.38 33.80 8.65L33.80 8.65L33.80 8.65Q33.71 8.93 33.53 9.11L33.53 9.11L33.53 9.11Q33.35 9.30 33.06 9.31L33.06 9.31L33.06 9.31Q32.77 9.34 32.59 9.24L32.59 9.24L32.59 9.24Q32.40 9.13 32.30 8.98L32.30 8.98L32.30 8.98Q32.20 8.83 32.16 8.67L32.16 8.67L32.16 8.67Q32.13 8.50 32.16 8.38L32.16 8.38L32.16 8.38Q32.20 8.20 32.29 8.05L32.29 8.05L32.29 8.05Q32.38 7.92 32.53 7.78L32.53 7.78L32.53 7.78Q32.69 7.64 32.95 7.56L32.95 7.56L32.95 7.56Q32.91 7.53 32.87 7.53L32.87 7.53L32.87 7.53Q32.83 7.53 32.79 7.52L32.79 7.52L32.79 7.52Q32.73 7.52 32.70 7.51L32.70 7.51L32.70 7.51Q32.48 7.51 32.20 7.66L32.20 7.66L32.20 7.66Q31.92 7.81 31.67 8.13L31.67 8.13L31.67 8.13Q31.42 8.46 31.25 8.98L31.25 8.98L31.25 8.98Q31.08 9.49 31.08 10.21L31.08 10.21L31.08 10.21Q31.08 10.53 31.14 10.83L31.14 10.83L31.14 10.83Q31.21 11.14 31.36 11.38L31.36 11.38L31.36 11.38Q31.50 11.62 31.71 11.76L31.71 11.76L31.71 11.76Q31.92 11.91 32.21 11.91L32.21 11.91L32.21 11.91Q32.54 11.91 32.79 11.76L32.79 11.76L32.79 11.76Q33.04 11.62 33.22 11.43L33.22 11.43L33.22 11.43Q33.40 11.24 33.50 11.05L33.50 11.05L33.50 11.05Q33.61 10.86 33.65 10.76L33.65 10.76L33.65 10.76Q33.69 10.68 33.79 10.68L33.79 10.68L33.79 10.68Q33.89 10.68 33.89 10.84ZM38.64 11.87L38.64 11.87L38.64 11.87Q38.66 11.96 38.72 12.04L38.72 12.04L38.72 12.04Q38.76 12.11 38.83 12.17L38.83 12.17L38.83 12.17Q38.91 12.24 39.02 12.25L39.02 12.25L39.02 12.25Q38.92 12.44 38.83 12.51L38.83 12.51L38.83 12.51Q38.77 12.55 38.73 12.56L38.73 12.56L38.73 12.56Q38.61 12.61 38.36 12.61L38.36 12.61L38.36 12.61Q38.12 12.61 37.88 12.46L37.88 12.46L37.88 12.46Q37.80 12.39 37.73 12.25L37.73 12.25L37.73 12.25Q37.67 12.14 37.62 11.94L37.62 11.94L37.62 11.94Q37.57 11.74 37.54 11.43L37.54 11.43L37.54 11.43Q37.35 11.84 37.11 12.08L37.11 12.08L37.11 12.08Q36.87 12.32 36.64 12.43L36.64 12.43L36.64 12.43Q36.38 12.58 36.11 12.61L36.11 12.61L36.11 12.61Q35.77 12.63 35.46 12.49L35.46 12.49L35.46 12.49Q35.15 12.35 34.94 12.05L34.94 12.05L34.94 12.05Q34.73 11.76 34.62 11.33L34.62 11.33L34.62 11.33Q34.51 10.91 34.55 10.38L34.55 10.38L34.55 10.38Q34.59 9.82 34.77 9.38L34.77 9.38L34.77 9.38Q34.95 8.94 35.19 8.60L35.19 8.60L35.19 8.60Q35.44 8.26 35.71 8.02L35.71 8.02L35.71 8.02Q35.98 7.78 36.24 7.62L36.24 7.62L36.24 7.62Q36.49 7.46 36.67 7.39L36.67 7.39L36.67 7.39Q36.86 7.31 36.91 7.30L36.91 7.30L36.91 7.30Q37.06 7.26 37.17 7.27L37.17 7.27L37.17 7.27Q37.28 7.29 37.37 7.40L37.37 7.40L37.37 7.40Q37.39 7.44 37.43 7.49L37.43 7.49L37.43 7.49Q37.46 7.55 37.50 7.64L37.50 7.64L37.50 7.64Q37.54 7.72 37.57 7.83L37.57 7.83L37.57 7.83Q37.24 7.98 36.96 8.17L36.96 8.17L36.96 8.17Q36.67 8.35 36.43 8.61L36.43 8.61L36.43 8.61Q36.19 8.87 36.01 9.24L36.01 9.24L36.01 9.24Q35.83 9.61 35.74 10.14L35.74 10.14L35.74 10.14Q35.60 10.81 35.81 11.22L35.81 11.22L35.81 11.22Q36.03 11.63 36.39 11.57L36.39 11.57L36.39 11.57Q36.61 11.50 36.82 11.31L36.82 11.31L36.82 11.31Q37.00 11.14 37.19 10.81L37.19 10.81L37.19 10.81Q37.39 10.49 37.57 9.91L37.57 9.91L37.57 9.91Q37.64 9.09 37.69 8.62L37.69 8.62L37.69 8.62Q37.73 8.15 37.78 7.90L37.78 7.90L37.78 7.90Q37.83 7.62 37.86 7.52L37.86 7.52L37.86 7.52Q37.90 7.45 38.02 7.39L38.02 7.39L38.02 7.39Q38.14 7.33 38.29 7.29L38.29 7.29L38.29 7.29Q38.45 7.25 38.57 7.24L38.57 7.24L38.57 7.24Q38.69 7.23 38.73 7.25L38.73 7.25L38.73 7.25Q38.76 7.26 38.76 7.58L38.76 7.58L38.76 7.58Q38.76 7.90 38.74 8.39L38.74 8.39L38.74 8.39Q38.72 8.87 38.69 9.44L38.69 9.44L38.69 9.44Q38.66 10.01 38.64 10.51L38.64 10.51L38.64 10.51Q38.62 11.02 38.62 11.40L38.62 11.40L38.62 11.40Q38.61 11.77 38.64 11.87ZM42.57 9.30L42.57 9.30L42.57 9.30Q42.86 9.42 43.12 9.69L43.12 9.69L43.12 9.69Q43.38 9.95 43.45 10.49L43.45 10.49L43.45 10.49Q43.50 10.95 43.60 11.32L43.60 11.32L43.60 11.32Q43.70 11.69 43.87 11.98L43.87 11.98L43.87 11.98Q44.05 12.28 44.34 12.50L44.34 12.50L44.34 12.50Q44.64 12.73 45.10 12.89L45.10 12.89L45.10 12.89Q44.98 13.00 44.81 13.07L44.81 13.07L44.81 13.07Q44.64 13.14 44.49 13.17L44.49 13.17L44.49 13.17Q44.31 13.22 44.12 13.22L44.12 13.22L44.12 13.22Q43.67 13.26 43.38 13.10L43.38 13.10L43.38 13.10Q43.09 12.95 42.93 12.65L42.93 12.65L42.93 12.65Q42.77 12.35 42.68 11.95L42.68 11.95L42.68 11.95Q42.60 11.55 42.56 11.13L42.56 11.13L42.56 11.13Q42.55 10.95 42.52 10.76L42.52 10.76L42.52 10.76Q42.49 10.57 42.42 10.39L42.42 10.39L42.42 10.39Q42.36 10.21 42.24 10.06L42.24 10.06L42.24 10.06Q42.12 9.91 41.95 9.83L41.95 9.83L41.95 9.83Q41.64 10.06 41.39 10.23L41.39 10.23L41.39 10.23Q41.14 10.40 40.95 10.51L40.95 10.51L40.95 10.51Q40.96 11.25 41.02 11.73L41.02 11.73L41.02 11.73Q41.08 12.21 41.19 12.37L41.19 12.37L41.19 12.37Q41.10 12.44 41.00 12.49L41.00 12.49L41.00 12.49Q40.91 12.54 40.84 12.56L40.84 12.56L40.84 12.56Q40.74 12.61 40.66 12.62L40.66 12.62L40.66 12.62Q40.39 12.70 40.17 12.60L40.17 12.60L40.17 12.60Q39.96 12.50 39.95 12.06L39.95 12.06L39.87 4.07L39.87 4.07Q39.87 3.96 40.08 3.85L40.08 3.85L40.08 3.85Q40.29 3.73 40.55 3.66L40.55 3.66L40.55 3.66Q40.81 3.60 41.02 3.60L41.02 3.60L41.02 3.60Q41.23 3.60 41.22 3.72L41.22 3.72L41.22 3.72Q41.18 4.66 41.14 5.50L41.14 5.50L41.14 5.50Q41.10 6.33 41.07 6.97L41.07 6.97L41.07 6.97Q41.03 7.72 41.00 8.34L41.00 8.34L41.00 8.34Q40.97 8.71 40.97 9.05L40.97 9.05L40.97 9.05Q40.96 9.39 40.95 9.71L40.95 9.71L40.95 9.71Q41.21 9.50 41.49 9.26L41.49 9.26L41.49 9.26Q41.78 9.01 42.04 8.71L42.04 8.71L42.04 8.71Q42.30 8.41 42.48 8.06L42.48 8.06L42.48 8.06Q42.66 7.71 42.68 7.31L42.68 7.31L42.68 7.31Q42.83 7.21 42.99 7.13L42.99 7.13L42.99 7.13Q43.15 7.05 43.27 7.01L43.27 7.01L43.27 7.01Q43.42 6.96 43.54 6.96L43.54 6.96L43.54 6.96Q43.86 6.95 43.91 7.10L43.91 7.10L43.91 7.10Q43.96 7.21 43.91 7.42L43.91 7.42L43.91 7.42Q43.86 7.63 43.70 7.92L43.70 7.92L43.70 7.92Q43.54 8.22 43.27 8.57L43.27 8.57L43.27 8.57Q43.00 8.91 42.57 9.30ZM46.59 12.71L46.59 12.71L46.59 12.71Q45.64 12.71 45.12 12.07L45.12 12.07L45.12 12.07Q44.60 11.43 44.60 10.39L44.60 10.39L44.60 10.39Q44.60 9.67 44.81 9.03L44.81 9.03L44.81 9.03Q45.02 8.39 45.38 7.93L45.38 7.93L45.38 7.93Q45.73 7.46 46.20 7.20L46.20 7.20L46.20 7.20Q46.68 6.93 47.20 6.93L47.20 6.93L47.20 6.93Q47.70 6.93 48.06 7.29L48.06 7.29L48.06 7.29Q48.41 7.66 48.41 8.33L48.41 8.33L48.41 8.33Q48.41 8.76 48.22 9.19L48.22 9.19L48.22 9.19Q48.03 9.63 47.72 9.96L47.72 9.96L47.72 9.96Q47.41 10.29 47.04 10.50L47.04 10.50L47.04 10.50Q46.68 10.71 46.33 10.71L46.33 10.71L46.33 10.71Q46.12 10.71 45.96 10.65L45.96 10.65L45.96 10.65Q45.81 10.60 45.69 10.49L45.69 10.49L45.69 10.49Q45.73 11.27 46.03 11.57L46.03 11.57L46.03 11.57Q46.33 11.88 46.81 11.88L46.81 11.88L46.81 11.88Q47.14 11.88 47.39 11.74L47.39 11.74L47.39 11.74Q47.65 11.61 47.82 11.43L47.82 11.43L47.82 11.43Q48.00 11.25 48.11 11.07L48.11 11.07L48.11 11.07Q48.22 10.88 48.26 10.79L48.26 10.79L48.26 10.79Q48.30 10.71 48.41 10.71L48.41 10.71L48.41 10.71Q48.51 10.71 48.51 10.87L48.51 10.87L48.51 10.87Q48.51 11.02 48.41 11.33L48.41 11.33L48.41 11.33Q48.30 11.63 48.07 11.94L48.07 11.94L48.07 11.94Q47.84 12.25 47.48 12.48L47.48 12.48L47.48 12.48Q47.11 12.71 46.59 12.71ZM47.22 7.52L47.22 7.52L47.22 7.52Q47.14 7.52 46.92 7.69L46.92 7.69L46.92 7.69Q46.69 7.86 46.44 8.19L46.44 8.19L46.44 8.19Q46.18 8.52 45.97 8.98L45.97 8.98L45.97 8.98Q45.76 9.43 45.71 10.01L45.71 10.01L45.71 10.01Q46.53 9.82 47.00 9.41L47.00 9.41L47.00 9.41Q47.48 9.00 47.48 8.20L47.48 8.20L47.48 8.20Q47.48 7.81 47.39 7.66L47.39 7.66L47.39 7.66Q47.29 7.52 47.22 7.52ZM51.46 9.97L51.46 9.97L51.46 9.97Q51.76 10.08 52.04 10.17L52.04 10.17L52.04 10.17Q52.31 10.27 52.51 10.40L52.51 10.40L52.51 10.40Q52.72 10.54 52.84 10.73L52.84 10.73L52.84 10.73Q52.96 10.91 52.96 11.18L52.96 11.18L52.96 11.18Q52.96 11.51 52.82 11.80L52.82 11.80L52.82 11.80Q52.68 12.09 52.40 12.30L52.40 12.30L52.40 12.30Q52.13 12.52 51.74 12.65L51.74 12.65L51.74 12.65Q51.35 12.78 50.87 12.78L50.87 12.78L50.87 12.78Q50.34 12.78 50.01 12.68L50.01 12.68L50.01 12.68Q49.68 12.58 49.51 12.44L49.51 12.44L49.51 12.44Q49.33 12.30 49.27 12.17L49.27 12.17L49.27 12.17Q49.22 12.03 49.22 11.95L49.22 11.95L49.22 11.95Q49.22 11.79 49.29 11.59L49.29 11.59L49.29 11.59Q49.36 11.39 49.55 11.16L49.55 11.16L49.55 11.16Q49.63 11.06 49.72 10.98L49.72 10.98L49.72 10.98Q49.92 10.81 50.11 10.77L50.11 10.77L50.11 10.77Q50.08 11.09 50.18 11.29L50.18 11.29L50.18 11.29Q50.29 11.48 50.46 11.59L50.46 11.59L50.46 11.59Q50.63 11.70 50.84 11.74L50.84 11.74L50.84 11.74Q51.05 11.79 51.24 11.79L51.24 11.79L51.24 11.79Q51.43 11.79 51.63 11.73L51.63 11.73L51.63 11.73Q51.83 11.68 51.99 11.59L51.99 11.59L51.99 11.59Q52.16 11.50 52.26 11.38L52.26 11.38L52.26 11.38Q52.36 11.27 52.36 11.13L52.36 11.13L52.36 11.13Q52.36 10.98 52.24 10.88L52.24 10.88L52.24 10.88Q52.12 10.79 51.93 10.73L51.93 10.73L51.93 10.73Q51.75 10.66 51.54 10.63L51.54 10.63L51.54 10.63Q51.32 10.60 51.13 10.55L51.13 10.55L51.13 10.55Q50.94 10.51 50.62 10.44L50.62 10.44L50.62 10.44Q50.30 10.36 49.99 10.20L49.99 10.20L49.99 10.20Q49.68 10.04 49.46 9.76L49.46 9.76L49.46 9.76Q49.23 9.49 49.23 9.04L49.23 9.04L49.23 9.04Q49.23 8.52 49.50 8.13L49.50 8.13L49.50 8.13Q49.77 7.74 50.16 7.47L50.16 7.47L50.16 7.47Q50.54 7.21 50.98 7.07L50.98 7.07L50.98 7.07Q51.42 6.93 51.76 6.93L51.76 6.93L51.76 6.93Q51.94 6.93 52.14 6.98L52.14 6.98L52.14 6.98Q52.35 7.03 52.53 7.14L52.53 7.14L52.53 7.14Q52.71 7.26 52.82 7.45L52.82 7.45L52.82 7.45Q52.94 7.64 52.94 7.94L52.94 7.94L52.94 7.94Q52.94 8.24 52.89 8.43L52.89 8.43L52.89 8.43Q52.84 8.61 52.75 8.72L52.75 8.72L52.75 8.72Q52.66 8.82 52.54 8.85L52.54 8.85L52.54 8.85Q52.42 8.87 52.25 8.87L52.25 8.87L52.25 8.87Q52.14 8.87 52.05 8.85L52.05 8.85L52.05 8.85Q51.97 8.82 51.87 8.79L51.87 8.79L51.87 8.79Q51.78 8.76 51.69 8.70L51.69 8.70L51.69 8.70Q51.83 8.53 51.91 8.38L51.91 8.38L51.91 8.38Q51.98 8.23 51.98 8.01L51.98 8.01L51.98 8.01Q51.98 7.82 51.88 7.67L51.88 7.67L51.88 7.67Q51.78 7.52 51.54 7.52L51.54 7.52L51.54 7.52Q51.30 7.52 51.07 7.62L51.07 7.62L51.07 7.62Q50.85 7.71 50.67 7.88L50.67 7.88L50.67 7.88Q50.50 8.04 50.40 8.25L50.40 8.25L50.40 8.25Q50.30 8.46 50.30 8.71L50.30 8.71L50.30 8.71Q50.30 9.08 50.58 9.41L50.58 9.41L50.58 9.41Q50.86 9.73 51.46 9.97ZM56.88 4.05L56.88 4.05L56.88 4.05Q56.98 3.90 57.11 3.79L57.11 3.79L57.11 3.79Q57.24 3.68 57.38 3.61L57.38 3.61L57.38 3.61Q57.53 3.54 57.70 3.50L57.70 3.50L57.70 3.50Q57.82 3.47 57.93 3.47L57.93 3.47L57.93 3.47Q58.02 3.47 58.11 3.49L58.11 3.49L58.11 3.49Q58.20 3.50 58.26 3.55L58.26 3.55L58.26 3.55Q58.23 4.21 58.21 4.67L58.21 4.67L58.21 4.67Q58.19 5.13 58.17 5.47L58.17 5.47L58.17 5.47Q58.15 5.81 58.13 6.08L58.13 6.08L58.13 6.08Q58.12 6.34 58.10 6.62L58.10 6.62L58.10 6.62Q58.08 6.89 58.05 7.21L58.05 7.21L58.05 7.21Q58.02 7.53 58.00 7.98L58.00 7.98L58.00 7.98Q57.97 8.27 57.96 8.57L57.96 8.57L57.96 8.57Q57.94 8.86 57.93 9.16L57.93 9.16L57.93 9.16Q58.05 8.82 58.24 8.45L58.24 8.45L58.24 8.45Q58.42 8.08 58.67 7.78L58.67 7.78L58.67 7.78Q58.91 7.48 59.23 7.28L59.23 7.28L59.23 7.28Q59.54 7.08 59.91 7.08L59.91 7.08L59.91 7.08Q60.43 7.08 60.74 7.38L60.74 7.38L60.74 7.38Q61.06 7.68 61.22 8.11L61.22 8.11L61.22 8.11Q61.39 8.54 61.43 9.02L61.43 9.02L61.43 9.02Q61.48 9.50 61.48 9.87L61.48 9.87L61.48 9.87Q61.48 10.23 61.39 10.71L61.39 10.71L61.39 10.71Q61.30 11.20 61.08 11.64L61.08 11.64L61.08 11.64Q60.85 12.09 60.48 12.40L60.48 12.40L60.48 12.40Q60.12 12.71 59.55 12.71L59.55 12.71L59.55 12.71Q59.16 12.71 58.88 12.55L58.88 12.55L58.88 12.55Q58.61 12.39 58.43 12.17L58.43 12.17L58.43 12.17Q58.26 11.95 58.18 11.73L58.18 11.73L58.18 11.73Q58.11 11.51 58.11 11.42L58.11 11.42L58.11 11.42Q58.11 11.32 58.17 11.19L58.17 11.19L58.17 11.19Q58.24 11.06 58.34 10.94L58.34 10.94L58.34 10.94Q58.43 10.83 58.54 10.75L58.54 10.75L58.54 10.75Q58.65 10.68 58.72 10.69L58.72 10.69L58.72 10.69Q58.69 11.14 58.78 11.38L58.78 11.38L58.78 11.38Q58.87 11.62 58.99 11.73L58.99 11.73L58.99 11.73Q59.14 11.87 59.32 11.88L59.32 11.88L59.32 11.88Q59.58 11.88 59.78 11.63L59.78 11.63L59.78 11.63Q59.98 11.39 60.12 11.03L60.12 11.03L60.12 11.03Q60.25 10.68 60.33 10.26L60.33 10.26L60.33 10.26Q60.40 9.84 60.40 9.52L60.40 9.52L60.40 9.52Q60.40 9.27 60.37 8.99L60.37 8.99L60.37 8.99Q60.33 8.71 60.27 8.47L60.27 8.47L60.27 8.47Q60.20 8.23 60.07 8.08L60.07 8.08L60.07 8.08Q59.95 7.93 59.77 7.93L59.77 7.93L59.77 7.93Q59.47 7.93 59.14 8.27L59.14 8.27L59.14 8.27Q58.82 8.61 58.54 9.17L58.54 9.17L58.54 9.17Q58.27 9.72 58.09 10.42L58.09 10.42L58.09 10.42Q57.91 11.12 57.93 11.84L57.93 11.84L57.93 11.84Q57.93 12.03 57.95 12.17L57.95 12.17L57.95 12.17Q57.97 12.32 58.00 12.43L58.00 12.43L58.00 12.43Q57.67 12.56 57.48 12.59L57.48 12.59L57.48 12.59Q57.37 12.62 57.30 12.61L57.30 12.61L57.30 12.61Q57.11 12.61 56.98 12.50L56.98 12.50L56.98 12.50Q56.86 12.39 56.83 12.03L56.83 12.03L56.83 12.03Q56.82 11.91 56.82 11.35L56.82 11.35L56.82 11.35Q56.82 10.80 56.82 10.01L56.82 10.01L56.82 10.01Q56.82 9.23 56.83 8.31L56.83 8.31L56.83 8.31Q56.83 7.40 56.84 6.55L56.84 6.55L56.84 6.55Q56.85 5.70 56.85 5.02L56.85 5.02L56.85 5.02Q56.86 4.35 56.88 4.05ZM66.32 7.31L66.32 7.31L66.32 7.31Q66.35 8.52 66.36 9.42L66.36 9.42L66.36 9.42Q66.38 10.32 66.39 10.94L66.39 10.94L66.39 10.94Q66.40 11.66 66.40 12.18L66.40 12.18L66.40 12.18Q66.42 12.82 66.30 13.51L66.30 13.51L66.30 13.51Q66.19 14.21 65.93 14.78L65.93 14.78L65.93 14.78Q65.67 15.35 65.24 15.72L65.24 15.72L65.24 15.72Q64.82 16.09 64.22 16.09L64.22 16.09L64.22 16.09Q63.49 16.09 63.11 15.80L63.11 15.80L63.11 15.80Q62.73 15.50 62.55 15.13L62.55 15.13L62.55 15.13Q62.37 14.77 62.34 14.44L62.34 14.44L62.34 14.44Q62.32 14.12 62.32 14.07L62.32 14.07L62.32 14.07Q62.32 13.96 62.45 13.82L62.45 13.82L62.45 13.82Q62.59 13.69 62.86 13.58L62.86 13.58L62.86 13.58Q62.97 13.54 63.08 13.51L63.08 13.51L63.08 13.51Q63.18 13.48 63.27 13.47L63.27 13.47L63.27 13.47Q63.37 13.45 63.45 13.48L63.45 13.48L63.45 13.48Q63.31 13.73 63.29 14.04L63.29 14.04L63.29 14.04Q63.27 14.36 63.38 14.64L63.38 14.64L63.38 14.64Q63.48 14.92 63.68 15.11L63.68 15.11L63.68 15.11Q63.89 15.30 64.20 15.30L64.20 15.30L64.20 15.30Q64.64 15.30 64.89 15.05L64.89 15.05L64.89 15.05Q65.15 14.79 65.28 14.42L65.28 14.42L65.28 14.42Q65.41 14.05 65.44 13.64L65.44 13.64L65.44 13.64Q65.47 13.23 65.47 12.92L65.47 12.92L65.47 12.92Q65.47 12.67 65.47 12.28L65.47 12.28L65.47 12.28Q65.46 11.89 65.42 11.42L65.42 11.42L65.42 11.42Q65.26 11.69 65.04 11.94L65.04 11.94L65.04 11.94Q64.82 12.20 64.57 12.39L64.57 12.39L64.57 12.39Q64.33 12.58 64.07 12.69L64.07 12.69L64.07 12.69Q63.82 12.81 63.57 12.81L63.57 12.81L63.57 12.81Q63.15 12.81 62.89 12.54L62.89 12.54L62.89 12.54Q62.63 12.28 62.49 11.87L62.49 11.87L62.49 11.87Q62.36 11.47 62.31 11.00L62.31 11.00L62.31 11.00Q62.26 10.53 62.26 10.13L62.26 10.13L62.26 10.13Q62.26 9.83 62.29 9.40L62.29 9.40L62.29 9.40Q62.32 8.97 62.36 8.57L62.36 8.57L62.36 8.57Q62.40 8.18 62.46 7.88L62.46 7.88L62.46 7.88Q62.52 7.59 62.59 7.55L62.59 7.55L62.59 7.55Q62.99 7.31 63.37 7.29L63.37 7.29L63.37 7.29Q63.75 7.26 63.94 7.38L63.94 7.38L63.94 7.38Q63.78 7.51 63.67 7.79L63.67 7.79L63.67 7.79Q63.56 8.08 63.49 8.43L63.49 8.43L63.49 8.43Q63.42 8.78 63.40 9.15L63.40 9.15L63.40 9.15Q63.37 9.53 63.37 9.83L63.37 9.83L63.37 9.83Q63.37 10.08 63.38 10.42L63.38 10.42L63.38 10.42Q63.40 10.76 63.44 11.07L63.44 11.07L63.44 11.07Q63.49 11.39 63.59 11.61L63.59 11.61L63.59 11.61Q63.68 11.83 63.83 11.83L63.83 11.83L63.83 11.83Q64.13 11.83 64.39 11.61L64.39 11.61L64.39 11.61Q64.65 11.39 64.85 11.06L64.85 11.06L64.85 11.06Q65.05 10.73 65.16 10.36L65.16 10.36L65.16 10.36Q65.27 9.98 65.27 9.65L65.27 9.65L65.27 9.54L65.27 9.54Q65.24 9.19 65.21 8.87L65.21 8.87L65.21 8.87Q65.19 8.54 65.17 8.29L65.17 8.29L65.17 8.29Q65.15 8.03 65.14 7.85L65.14 7.85L65.14 7.85Q65.13 7.68 65.13 7.63L65.13 7.63L65.13 7.63Q65.13 7.49 65.32 7.38L65.32 7.38L65.32 7.38Q65.50 7.27 65.73 7.23L65.73 7.23L65.73 7.23Q65.95 7.18 66.14 7.19L66.14 7.19L66.14 7.19Q66.32 7.21 66.32 7.31ZM73.27 13.77L73.27 13.77L73.27 13.77Q72.53 13.77 71.93 13.41L71.93 13.41L71.93 13.41Q71.33 13.04 70.91 12.41L70.91 12.41L70.91 12.41Q70.49 11.79 70.27 10.94L70.27 10.94L70.27 10.94Q70.04 10.09 70.04 9.11L70.04 9.11L70.04 9.11Q70.04 7.70 70.37 6.59L70.37 6.59L70.37 6.59Q70.70 5.48 71.24 4.72L71.24 4.72L71.24 4.72Q71.78 3.95 72.47 3.54L72.47 3.54L72.47 3.54Q73.16 3.13 73.88 3.13L73.88 3.13L73.88 3.13Q74.57 3.13 75.03 3.38L75.03 3.38L75.03 3.38Q75.50 3.62 75.78 4.01L75.78 4.01L75.78 4.01Q76.06 4.39 76.16 4.85L76.16 4.85L76.16 4.85Q76.26 5.30 76.22 5.71L76.22 5.71L76.22 5.71Q76.15 6.51 75.68 7L75.68 7L75.68 7Q75.21 7.49 74.59 7.49L74.59 7.49L74.59 7.49Q74.39 7.48 74.17 7.42L74.17 7.42L74.17 7.42Q73.98 7.37 73.77 7.26L73.77 7.26L73.77 7.26Q73.57 7.15 73.39 6.95L73.39 6.95L73.39 6.95Q73.96 6.99 74.28 6.71L74.28 6.71L74.28 6.71Q74.59 6.44 74.74 6.10L74.74 6.10L74.74 6.10Q74.91 5.70 74.94 5.17L74.94 5.17L74.94 5.17Q74.94 4.87 74.84 4.64L74.84 4.64L74.84 4.64Q74.74 4.42 74.59 4.27L74.59 4.27L74.59 4.27Q74.43 4.13 74.25 4.06L74.25 4.06L74.25 4.06Q74.07 3.99 73.91 3.99L73.91 3.99L73.91 3.99Q73.54 3.99 73.11 4.28L73.11 4.28L73.11 4.28Q72.68 4.57 72.30 5.15L72.30 5.15L72.30 5.15Q71.91 5.73 71.66 6.62L71.66 6.62L71.66 6.62Q71.41 7.52 71.41 8.75L71.41 8.75L71.41 8.75Q71.41 9.97 71.63 10.74L71.63 10.74L71.63 10.74Q71.85 11.51 72.16 11.94L72.16 11.94L72.16 11.94Q72.47 12.37 72.82 12.53L72.82 12.53L72.82 12.53Q73.17 12.69 73.42 12.69L73.42 12.69L73.42 12.69Q73.90 12.65 74.29 12.36L74.29 12.36L74.29 12.36Q74.63 12.11 74.94 11.57L74.94 11.57L74.94 11.57Q75.25 11.03 75.36 10.02L75.36 10.02L75.36 10.02Q75.54 10.04 75.65 10.10L75.65 10.10L75.65 10.10Q75.77 10.17 75.85 10.24L75.85 10.24L75.85 10.24Q75.93 10.32 76.00 10.43L76.00 10.43L76.00 10.43Q76.02 10.45 76.00 10.71L76.00 10.71L76.00 10.71Q75.99 10.96 75.91 11.33L75.91 11.33L75.91 11.33Q75.82 11.70 75.65 12.13L75.65 12.13L75.65 12.13Q75.48 12.55 75.17 12.92L75.17 12.92L75.17 12.92Q74.87 13.29 74.40 13.53L74.40 13.53L74.40 13.53Q73.94 13.77 73.27 13.77ZM78.09 10.42L78.09 10.42L78.09 10.42Q78.26 9.93 78.37 9.58L78.37 9.58L78.37 9.58Q78.49 9.24 78.57 9.04L78.57 9.04L78.57 9.04Q78.67 8.79 78.74 8.64L78.74 8.64L78.74 8.64Q78.82 8.42 78.92 8.20L78.92 8.20L78.92 8.20Q79.02 7.98 79.13 7.80L79.13 7.80L79.13 7.80Q79.24 7.62 79.34 7.49L79.34 7.49L79.34 7.49Q79.43 7.37 79.50 7.33L79.50 7.33L79.50 7.33Q79.56 7.30 79.75 7.33L79.75 7.33L79.75 7.33Q79.95 7.36 80.19 7.46L80.19 7.46L80.19 7.46Q80.43 7.56 80.64 7.74L80.64 7.74L80.64 7.74Q80.86 7.92 80.94 8.18L80.94 8.18L80.94 8.18Q81.02 8.49 80.99 9.00L80.99 9.00L80.99 9.00Q80.96 9.50 80.92 10.04L80.92 10.04L80.92 10.04Q80.87 10.57 80.85 11.05L80.85 11.05L80.85 11.05Q80.83 11.53 80.91 11.77L80.91 11.77L80.91 11.77Q80.96 11.91 81.02 12.04L81.02 12.04L81.02 12.04Q81.07 12.15 81.15 12.27L81.15 12.27L81.15 12.27Q81.22 12.39 81.32 12.47L81.32 12.47L81.32 12.47Q80.92 12.62 80.68 12.69L80.68 12.69L80.68 12.69Q80.45 12.77 80.32 12.80L80.32 12.80L80.32 12.80Q80.17 12.84 80.12 12.81L80.12 12.81L80.12 12.81Q80.01 12.77 79.91 12.61L79.91 12.61L79.91 12.61Q79.82 12.44 79.75 12.09L79.75 12.09L79.75 12.09Q79.72 11.98 79.73 11.70L79.73 11.70L79.73 11.70Q79.75 11.43 79.78 11.09L79.78 11.09L79.78 11.09Q79.80 10.75 79.83 10.37L79.83 10.37L79.83 10.37Q79.86 9.99 79.88 9.67L79.88 9.67L79.88 9.67Q79.91 9.34 79.92 9.09L79.92 9.09L79.92 9.09Q79.93 8.85 79.91 8.76L79.91 8.76L79.91 8.76Q79.84 8.53 79.72 8.43L79.72 8.43L79.72 8.43Q79.60 8.33 79.53 8.41L79.53 8.41L79.53 8.41Q79.37 8.61 79.17 9.11L79.17 9.11L79.17 9.11Q78.97 9.61 78.79 10.19L78.79 10.19L78.79 10.19Q78.61 10.77 78.48 11.35L78.48 11.35L78.48 11.35Q78.35 11.92 78.33 12.29L78.33 12.29L78.33 12.29Q78.33 12.37 78.20 12.46L78.20 12.46L78.20 12.46Q78.07 12.55 77.91 12.62L77.91 12.62L77.91 12.62Q77.75 12.69 77.60 12.71L77.60 12.71L77.60 12.71Q77.45 12.73 77.40 12.66L77.40 12.66L77.40 12.66Q77.36 12.62 77.23 12.47L77.23 12.47L77.23 12.47Q77.10 12.32 77.08 11.96L77.08 11.96L77.08 11.96Q77.05 11.62 77.08 11.03L77.08 11.03L77.08 11.03Q77.11 10.43 77.10 9.78L77.10 9.78L77.10 8.76L77.10 8.76Q77.10 8.15 77.09 7.06L77.09 7.06L77.09 7.06Q77.08 5.97 77.07 4.18L77.07 4.18L77.07 4.18Q77.22 4.10 77.34 4.04L77.34 4.04L77.34 4.04Q77.46 3.98 77.57 3.94L77.57 3.94L77.57 3.94Q77.70 3.88 77.81 3.86L77.81 3.86L77.81 3.86Q78.39 3.71 78.42 3.86L78.42 3.86L78.42 3.86Q78.44 3.99 78.39 4.73L78.39 4.73L78.39 4.73Q78.38 5.04 78.35 5.52L78.35 5.52L78.35 5.52Q78.33 6.00 78.29 6.69L78.29 6.69L78.29 6.69Q78.26 7.37 78.21 8.29L78.21 8.29L78.21 8.29Q78.16 9.21 78.09 10.42ZM83.81 12.71L83.81 12.71L83.81 12.71Q82.85 12.71 82.33 12.07L82.33 12.07L82.33 12.07Q81.81 11.43 81.81 10.39L81.81 10.39L81.81 10.39Q81.81 9.67 82.02 9.03L82.02 9.03L82.02 9.03Q82.24 8.39 82.59 7.93L82.59 7.93L82.59 7.93Q82.95 7.46 83.42 7.20L83.42 7.20L83.42 7.20Q83.89 6.93 84.41 6.93L84.41 6.93L84.41 6.93Q84.92 6.93 85.27 7.29L85.27 7.29L85.27 7.29Q85.63 7.66 85.63 8.33L85.63 8.33L85.63 8.33Q85.63 8.76 85.44 9.19L85.44 9.19L85.44 9.19Q85.24 9.63 84.94 9.96L84.94 9.96L84.94 9.96Q84.63 10.29 84.26 10.50L84.26 10.50L84.26 10.50Q83.89 10.71 83.55 10.71L83.55 10.71L83.55 10.71Q83.33 10.71 83.18 10.65L83.18 10.65L83.18 10.65Q83.03 10.60 82.91 10.49L82.91 10.49L82.91 10.49Q82.95 11.27 83.25 11.57L83.25 11.57L83.25 11.57Q83.55 11.88 84.03 11.88L84.03 11.88L84.03 11.88Q84.36 11.88 84.61 11.74L84.61 11.74L84.61 11.74Q84.86 11.61 85.04 11.43L85.04 11.43L85.04 11.43Q85.22 11.25 85.33 11.07L85.33 11.07L85.33 11.07Q85.44 10.88 85.48 10.79L85.48 10.79L85.48 10.79Q85.52 10.71 85.62 10.71L85.62 10.71L85.62 10.71Q85.72 10.71 85.72 10.87L85.72 10.87L85.72 10.87Q85.72 11.02 85.62 11.33L85.62 11.33L85.62 11.33Q85.52 11.63 85.29 11.94L85.29 11.94L85.29 11.94Q85.05 12.25 84.69 12.48L84.69 12.48L84.69 12.48Q84.33 12.71 83.81 12.71ZM84.44 7.52L84.44 7.52L84.44 7.52Q84.36 7.52 84.13 7.69L84.13 7.69L84.13 7.69Q83.90 7.86 83.65 8.19L83.65 8.19L83.65 8.19Q83.40 8.52 83.19 8.98L83.19 8.98L83.19 8.98Q82.97 9.43 82.92 10.01L82.92 10.01L82.92 10.01Q83.74 9.82 84.22 9.41L84.22 9.41L84.22 9.41Q84.70 9.00 84.70 8.20L84.70 8.20L84.70 8.20Q84.70 7.81 84.60 7.66L84.60 7.66L84.60 7.66Q84.51 7.52 84.44 7.52ZM88.29 3.71L88.29 3.71L88.29 3.71Q88.27 4.20 88.20 4.84L88.20 4.84L88.20 4.84Q88.13 5.48 88.05 6.22L88.05 6.22L88.05 6.22Q87.98 6.96 87.90 7.77L87.90 7.77L87.90 7.77Q87.83 8.57 87.77 9.39L87.77 9.39L87.77 9.39Q87.72 10.21 87.73 10.73L87.73 10.73L87.73 10.73Q87.73 11.24 87.79 11.57L87.79 11.57L87.79 11.57Q87.84 11.89 87.94 12.09L87.94 12.09L87.94 12.09Q88.03 12.28 88.18 12.46L88.18 12.46L88.18 12.46Q88.01 12.56 87.86 12.62L87.86 12.62L87.86 12.62Q87.71 12.67 87.60 12.70L87.60 12.70L87.60 12.70Q87.46 12.74 87.35 12.74L87.35 12.74L87.35 12.74Q87.14 12.74 86.99 12.54L86.99 12.54L86.99 12.54Q86.84 12.35 86.75 12.03L86.75 12.03L86.75 12.03Q86.67 11.72 86.62 11.33L86.62 11.33L86.62 11.33Q86.57 10.94 86.57 10.55L86.57 10.55L86.57 10.55Q86.57 10.14 86.60 9.60L86.60 9.60L86.60 9.60Q86.63 9.06 86.66 8.46L86.66 8.46L86.66 8.46Q86.69 7.85 86.73 7.18L86.73 7.18L86.73 7.18Q86.78 6.52 86.80 5.87L86.80 5.87L86.80 5.87Q86.83 5.36 86.86 4.95L86.86 4.95L86.86 4.95Q86.88 4.59 86.90 4.30L86.90 4.30L86.90 4.30Q86.91 4.01 86.88 3.95L86.88 3.95L86.88 3.95Q86.97 3.84 87.09 3.79L87.09 3.79L87.09 3.79Q87.21 3.73 87.32 3.69L87.32 3.69L87.32 3.69Q87.46 3.65 87.60 3.62L87.60 3.62L87.86 3.62L87.86 3.62Q87.96 3.62 88.09 3.64L88.09 3.64L88.09 3.64Q88.21 3.66 88.29 3.71ZM91.10 9.97L91.10 9.97L91.10 9.97Q91.40 10.08 91.67 10.17L91.67 10.17L91.67 10.17Q91.94 10.27 92.15 10.40L92.15 10.40L92.15 10.40Q92.35 10.54 92.48 10.73L92.48 10.73L92.48 10.73Q92.60 10.91 92.60 11.18L92.60 11.18L92.60 11.18Q92.60 11.51 92.46 11.80L92.46 11.80L92.46 11.80Q92.31 12.09 92.04 12.30L92.04 12.30L92.04 12.30Q91.77 12.52 91.38 12.65L91.38 12.65L91.38 12.65Q90.99 12.78 90.51 12.78L90.51 12.78L90.51 12.78Q89.97 12.78 89.65 12.68L89.65 12.68L89.65 12.68Q89.32 12.58 89.14 12.44L89.14 12.44L89.14 12.44Q88.96 12.30 88.91 12.17L88.91 12.17L88.91 12.17Q88.85 12.03 88.85 11.95L88.85 11.95L88.85 11.95Q88.85 11.79 88.92 11.59L88.92 11.59L88.92 11.59Q88.99 11.39 89.18 11.16L89.18 11.16L89.18 11.16Q89.26 11.06 89.36 10.98L89.36 10.98L89.36 10.98Q89.55 10.81 89.74 10.77L89.74 10.77L89.74 10.77Q89.71 11.09 89.82 11.29L89.82 11.29L89.82 11.29Q89.92 11.48 90.09 11.59L90.09 11.59L90.09 11.59Q90.26 11.70 90.47 11.74L90.47 11.74L90.47 11.74Q90.69 11.79 90.88 11.79L90.88 11.79L90.88 11.79Q91.07 11.79 91.27 11.73L91.27 11.73L91.27 11.73Q91.46 11.68 91.63 11.59L91.63 11.59L91.63 11.59Q91.79 11.50 91.90 11.38L91.90 11.38L91.90 11.38Q92.00 11.27 92.00 11.13L92.00 11.13L92.00 11.13Q92.00 10.98 91.88 10.88L91.88 10.88L91.88 10.88Q91.75 10.79 91.57 10.73L91.57 10.73L91.57 10.73Q91.38 10.66 91.17 10.63L91.17 10.63L91.17 10.63Q90.96 10.60 90.77 10.55L90.77 10.55L90.77 10.55Q90.58 10.51 90.25 10.44L90.25 10.44L90.25 10.44Q89.93 10.36 89.63 10.20L89.63 10.20L89.63 10.20Q89.32 10.04 89.09 9.76L89.09 9.76L89.09 9.76Q88.87 9.49 88.87 9.04L88.87 9.04L88.87 9.04Q88.87 8.52 89.13 8.13L89.13 8.13L89.13 8.13Q89.40 7.74 89.79 7.47L89.79 7.47L89.79 7.47Q90.18 7.21 90.62 7.07L90.62 7.07L90.62 7.07Q91.05 6.93 91.40 6.93L91.40 6.93L91.40 6.93Q91.57 6.93 91.78 6.98L91.78 6.98L91.78 6.98Q91.98 7.03 92.16 7.14L92.16 7.14L92.16 7.14Q92.34 7.26 92.46 7.45L92.46 7.45L92.46 7.45Q92.57 7.64 92.57 7.94L92.57 7.94L92.57 7.94Q92.57 8.24 92.52 8.43L92.52 8.43L92.52 8.43Q92.48 8.61 92.39 8.72L92.39 8.72L92.39 8.72Q92.30 8.82 92.18 8.85L92.18 8.85L92.18 8.85Q92.05 8.87 91.89 8.87L91.89 8.87L91.89 8.87Q91.78 8.87 91.68 8.85L91.68 8.85L91.68 8.85Q91.60 8.82 91.51 8.79L91.51 8.79L91.51 8.79Q91.41 8.76 91.33 8.70L91.33 8.70L91.33 8.70Q91.46 8.53 91.54 8.38L91.54 8.38L91.54 8.38Q91.62 8.23 91.62 8.01L91.62 8.01L91.62 8.01Q91.62 7.82 91.51 7.67L91.51 7.67L91.51 7.67Q91.41 7.52 91.18 7.52L91.18 7.52L91.18 7.52Q90.93 7.52 90.71 7.62L90.71 7.62L90.71 7.62Q90.48 7.71 90.31 7.88L90.31 7.88L90.31 7.88Q90.14 8.04 90.04 8.25L90.04 8.25L90.04 8.25Q89.93 8.46 89.93 8.71L89.93 8.71L89.93 8.71Q89.93 9.08 90.21 9.41L90.21 9.41L90.21 9.41Q90.49 9.73 91.10 9.97ZM95.22 12.71L95.22 12.71L95.22 12.71Q94.27 12.71 93.75 12.07L93.75 12.07L93.75 12.07Q93.23 11.43 93.23 10.39L93.23 10.39L93.23 10.39Q93.23 9.67 93.44 9.03L93.44 9.03L93.44 9.03Q93.65 8.39 94.01 7.93L94.01 7.93L94.01 7.93Q94.36 7.46 94.83 7.20L94.83 7.20L94.83 7.20Q95.31 6.93 95.83 6.93L95.83 6.93L95.83 6.93Q96.33 6.93 96.69 7.29L96.69 7.29L96.69 7.29Q97.04 7.66 97.04 8.33L97.04 8.33L97.04 8.33Q97.04 8.76 96.85 9.19L96.85 9.19L96.85 9.19Q96.66 9.63 96.35 9.96L96.35 9.96L96.35 9.96Q96.04 10.29 95.68 10.50L95.68 10.50L95.68 10.50Q95.31 10.71 94.96 10.71L94.96 10.71L94.96 10.71Q94.75 10.71 94.60 10.65L94.60 10.65L94.60 10.65Q94.45 10.60 94.32 10.49L94.32 10.49L94.32 10.49Q94.36 11.27 94.66 11.57L94.66 11.57L94.66 11.57Q94.96 11.88 95.44 11.88L95.44 11.88L95.44 11.88Q95.77 11.88 96.02 11.74L96.02 11.74L96.02 11.74Q96.28 11.61 96.46 11.43L96.46 11.43L96.46 11.43Q96.63 11.25 96.74 11.07L96.74 11.07L96.74 11.07Q96.85 10.88 96.89 10.79L96.89 10.79L96.89 10.79Q96.93 10.71 97.04 10.71L97.04 10.71L97.04 10.71Q97.14 10.71 97.14 10.87L97.14 10.87L97.14 10.87Q97.14 11.02 97.04 11.33L97.04 11.33L97.04 11.33Q96.93 11.63 96.70 11.94L96.70 11.94L96.70 11.94Q96.47 12.25 96.11 12.48L96.11 12.48L96.11 12.48Q95.74 12.71 95.22 12.71ZM95.85 7.52L95.85 7.52L95.85 7.52Q95.77 7.52 95.55 7.69L95.55 7.69L95.55 7.69Q95.32 7.86 95.07 8.19L95.07 8.19L95.07 8.19Q94.81 8.52 94.60 8.98L94.60 8.98L94.60 8.98Q94.39 9.43 94.34 10.01L94.34 10.01L94.34 10.01Q95.16 9.82 95.63 9.41L95.63 9.41L95.63 9.41Q96.11 9.00 96.11 8.20L96.11 8.20L96.11 8.20Q96.11 7.81 96.02 7.66L96.02 7.66L96.02 7.66Q95.92 7.52 95.85 7.52ZM101.88 11.87L101.88 11.87L101.88 11.87Q101.91 11.96 101.96 12.04L101.96 12.04L101.96 12.04Q102.01 12.11 102.08 12.17L102.08 12.17L102.08 12.17Q102.16 12.24 102.27 12.25L102.27 12.25L102.27 12.25Q102.17 12.44 102.07 12.51L102.07 12.51L102.07 12.51Q102.02 12.55 101.98 12.56L101.98 12.56L101.98 12.56Q101.86 12.61 101.61 12.61L101.61 12.61L101.61 12.61Q101.36 12.61 101.13 12.46L101.13 12.46L101.13 12.46Q101.05 12.39 100.98 12.25L100.98 12.25L100.98 12.25Q100.91 12.14 100.86 11.94L100.86 11.94L100.86 11.94Q100.82 11.74 100.79 11.43L100.79 11.43L100.79 11.43Q100.60 11.84 100.36 12.08L100.36 12.08L100.36 12.08Q100.12 12.32 99.89 12.43L99.89 12.43L99.89 12.43Q99.63 12.58 99.35 12.61L99.35 12.61L99.35 12.61Q99.01 12.63 98.70 12.49L98.70 12.49L98.70 12.49Q98.40 12.35 98.18 12.05L98.18 12.05L98.18 12.05Q97.97 11.76 97.86 11.33L97.86 11.33L97.86 11.33Q97.75 10.91 97.79 10.38L97.79 10.38L97.79 10.38Q97.84 9.82 98.01 9.38L98.01 9.38L98.01 9.38Q98.19 8.94 98.44 8.60L98.44 8.60L98.44 8.60Q98.68 8.26 98.96 8.02L98.96 8.02L98.96 8.02Q99.23 7.78 99.48 7.62L99.48 7.62L99.48 7.62Q99.74 7.46 99.92 7.39L99.92 7.39L99.92 7.39Q100.11 7.31 100.16 7.30L100.16 7.30L100.16 7.30Q100.31 7.26 100.42 7.27L100.42 7.27L100.42 7.27Q100.53 7.29 100.61 7.40L100.61 7.40L100.61 7.40Q100.64 7.44 100.68 7.49L100.68 7.49L100.68 7.49Q100.71 7.55 100.75 7.64L100.75 7.64L100.75 7.64Q100.79 7.72 100.82 7.83L100.82 7.83L100.82 7.83Q100.49 7.98 100.20 8.17L100.20 8.17L100.20 8.17Q99.91 8.35 99.67 8.61L99.67 8.61L99.67 8.61Q99.44 8.87 99.26 9.24L99.26 9.24L99.26 9.24Q99.08 9.61 98.98 10.14L98.98 10.14L98.98 10.14Q98.85 10.81 99.06 11.22L99.06 11.22L99.06 11.22Q99.27 11.63 99.64 11.57L99.64 11.57L99.64 11.57Q99.86 11.50 100.06 11.31L100.06 11.31L100.06 11.31Q100.24 11.14 100.44 10.81L100.44 10.81L100.44 10.81Q100.64 10.49 100.82 9.91L100.82 9.91L100.82 9.91Q100.88 9.09 100.93 8.62L100.93 8.62L100.93 8.62Q100.98 8.15 101.02 7.90L101.02 7.90L101.02 7.90Q101.08 7.62 101.10 7.52L101.10 7.52L101.10 7.52Q101.14 7.45 101.27 7.39L101.27 7.39L101.27 7.39Q101.39 7.33 101.54 7.29L101.54 7.29L101.54 7.29Q101.69 7.25 101.81 7.24L101.81 7.24L101.81 7.24Q101.94 7.23 101.98 7.25L101.98 7.25L101.98 7.25Q102.01 7.26 102.01 7.58L102.01 7.58L102.01 7.58Q102.01 7.90 101.99 8.39L101.99 8.39L101.99 8.39Q101.96 8.87 101.94 9.44L101.94 9.44L101.94 9.44Q101.91 10.01 101.89 10.51L101.89 10.51L101.89 10.51Q101.87 11.02 101.86 11.40L101.86 11.40L101.86 11.40Q101.86 11.77 101.88 11.87Z"></path></g><defs data-v-423bf9ae=""><linearGradient data-v-423bf9ae="" gradientTransform="rotate(25)" id="b49bc5a4-cc6d-4d30-9a50-fbe73f61bf20" x1="0%" y1="0%" x2="100%" y2="0%"><stop data-v-423bf9ae="" offset="0%" style="stop-color: rgb(162, 31, 56); stop-opacity: 1;"></stop><stop data-v-423bf9ae="" offset="100%" style="stop-color: rgb(216, 128, 107); stop-opacity: 1;"></stop></linearGradient></defs><g data-v-423bf9ae="" id="abc1f1a8-c42a-4d75-95fd-51a313a33323" transform="matrix(1.482554303442739,0,0,1.482554303442739,162.24776543435223,-22.413482183492874)" stroke="none" fill="url(#b49bc5a4-cc6d-4d30-9a50-fbe73f61bf20)"><path d="M15.334 76.069c-1.558 0-2.976-1.141-3.284-2.685L8 54l2.322.176 4.239 18.706c.069.347.471.624.819.625l71.495-5.076c.393-.028.833-.438.888-.829l2.521-17.834 2.535.357-2.52 17.837c-.224 1.581-1.647 2.91-3.241 3.023l-71.496 5.076a2.894 2.894 0 0 1-.228.008z"></path><path d="M11.955 62.536c1.85-1.523 4.635-1.037 6.199.577 2.118-2.567 6.061-3.26 9.12-2.718.88.156 1.085.354 2.008.379 1.732.051 3.359-.126 5.175.065 3.116.328 6.28-1.047 9.56-1.077 2.838-.026 6.393-.301 9.129.577.83.266 1.425 1.253 2.337 1.154.572-.062 1.4-1.314 1.835-1.623 1.345-.954 2.169-1.118 3.771-1.179 2.252-.089 3.916 1.174 5.895 1.293 1.772.108.54.094 2.101-1.141 3.325-2.632 8.107-.71 11.995-.993 2.994-.218 5.868-1.827 8.951-1.472-.651 2.645-1.342 5.032-1.5 7.826-2.72.928-5.968-.118-8.715-.389-1.622-.16-2.782-.561-4.055.151-.81.45-1.094 1.517-2.13 1.991-1.627.747-2.743.295-4.229-.39-2.435-1.121-2.513-1.217-4.995-.26-2.766 1.065-5.343 1.286-8.288 1.28-4.657-.011-9.251-1.331-13.825-1.249-.47 1.551-2.07 2.367-3.611 2.599-2.781.422-3.667-1.192-5.378-2.873-2.57 2.15-7.392 1.781-10.723 1.951-2.327.117-4.136.48-6.387 1.019-.57.136-1.119.331-1.679.426-.704.119-1.321.32-1.068.048M91.793 48.698L73.786 35.903c-.253.87-.77 2.115-1.289 2.375 1.091 0 2.061.725 1.454 2.786-.606 2.061-6.662 6.421-13.084 5.453-6.425-.969-11.634-2.422-12.118-7.511-.243-2.542.181-4.058.787-5.058L9.245 53.483c-1.797.87-1.634 1.504.359 1.41l81.523-3.92c1.992-.095 2.293-1.12.666-2.275z"></path><path d="M72.982 37.187l.296.37c.186.235.482.615.719 1.166.241.541.493 1.293.372 2.206-.102.908-.603 1.895-1.378 2.671-.768.787-1.746 1.426-2.82 1.939l-1.583.736c-.6.249-1.227.458-1.844.631-1.25.342-2.567.609-3.921.694a23.431 23.431 0 0 1-4.108-.071 19.745 19.745 0 0 1-4.04-.933 12.837 12.837 0 0 1-3.627-1.93c-1.09-.818-1.982-1.891-2.523-3.067-.561-1.172-.703-2.424-.604-3.5.088-1.086.438-1.996.771-2.758.355-.756.737-1.363 1.085-1.834.312-.493.655-.811.844-1.053l.31-.358s-.068.15-.192.434c-.119.286-.324.685-.514 1.22-.216.522-.417 1.176-.607 1.912-.152.746-.286 1.586-.225 2.464.071.877.331 1.769.825 2.582.498.812 1.251 1.521 2.146 2.127.9.609 1.98 1.041 3.101 1.418 1.129.367 2.334.604 3.551.733 1.218.158 2.454.204 3.665.148 1.208-.066 2.4-.17 3.525-.412.574-.113 1.092-.271 1.606-.4l1.621-.54c.986-.358 1.886-.764 2.587-1.278.688-.522 1.174-1.129 1.396-1.781.223-.651.197-1.314.099-1.85a6.125 6.125 0 0 0-.354-1.249c-.118-.284-.179-.437-.179-.437z"></path><path d="M64.5 36.944c-.702.104-1.392.266-2.109.306-.717.074-1.436.091-2.155.091a21.68 21.68 0 0 1-2.166-.153l-1.085-.159-1.074-.263c-.363-.075-.712-.214-1.067-.34-.354-.125-.711-.247-1.05-.437-.701-.311-1.354-.774-1.967-1.306-.277-.308-.584-.592-.829-.938-.21-.374-.46-.738-.619-1.142-.115-.419-.263-.849-.323-1.279-.014-.432-.01-.868-.002-1.303.167-.813.34-1.646.709-2.34.289-.764.742-1.37 1.148-2.028l.156-.243c.043-.062.011-.032.117-.169l.084-.104.339-.406c.187-.255.562-.586.863-.876a10.523 10.523 0 0 1 1.974-1.364c1.355-.741 2.766-1.212 3.682-1.792.445-.298.682-.596.839-1.002.181-.388.173-.97.16-1.546l-.061-2.788 2.062 1.719a36.546 36.546 0 0 1 4.104 4.002c1.235 1.475 2.412 3.084 3.017 5.105.275 1.002.344 2.189-.128 3.242a3.99 3.99 0 0 1-.945 1.34 5.756 5.756 0 0 1-1.271.875c-.889.462-1.819.73-2.754.891-.928.19-1.869.238-2.798.284.9-.246 1.789-.51 2.642-.84.852-.322 1.673-.717 2.366-1.219.352-.248.654-.537.904-.844.239-.312.436-.637.528-.99.213-.692.092-1.458-.21-2.203-.579-1.514-1.765-2.889-2.979-4.162-1.23-1.285-2.613-2.451-4.024-3.568l1.999-1.068c.038.822.087 1.692-.266 2.627-.309.924-1.025 1.756-1.757 2.238-1.464.953-2.8 1.296-3.92 1.91a8.072 8.072 0 0 0-1.521 1.005c-.201.202-.39.305-.633.614l-.346.4-.088.099c.054-.067-.025.038-.03.048l-.139.197c-.36.526-.79 1.035-1.019 1.595-.336.544-.449 1.102-.619 1.658-.007.271-.017.539-.045.812.015.266.095.515.124.784.075.256.225.489.322.747.14.241.348.454.514.691.415.426.893.826 1.447 1.163.258.193.556.333.853.479.296.147.586.308.907.414.622.257 1.269.459 1.931.648.659.187 1.338.33 2.019.452.688.116 1.376.233 2.071.284.695.099 1.412.106 2.118.152z"></path><path d="M67.649 30.401s.102-.063.29-.183c.175-.144.477-.257.953-.349a4.7 4.7 0 0 1 1.606.096c.611.135 1.273.404 1.947.819.635.453 1.346 1.003 1.825 1.857.54.798.839 1.918.714 3.037l-.146.837c-.064.275-.197.516-.3.778-.192.547-.516.974-.846 1.409-.308.47-.706.794-1.088 1.161-.377.383-.795.673-1.216.957l-.634.427-.159.106-.079.053-.02.013-.107.059-.039.02-.314.152c-.434.201-.808.408-1.292.581-.506.167-1.013.317-1.515.452-.491.11-.96.156-1.428.234-.929.159-1.837.109-2.68.099-.845-.071-1.638-.122-2.352-.303a11.147 11.147 0 0 1-1.919-.506c-.561-.182-1.04-.351-1.417-.548-.762-.367-1.175-.596-1.175-.596s.487.025 1.302.103c.401.061.905.046 1.466.077.559.042 1.19.019 1.871.005.68.016 1.41-.105 2.172-.143.382-.024.767-.123 1.158-.182.392-.07.796-.106 1.185-.228.389-.105.808-.186 1.186-.311.355-.147.718-.28 1.086-.4.378-.142.809-.415 1.22-.606l.311-.158.039-.02-.078.043.01-.005.016-.012.065-.046.13-.092.523-.365c.361-.232.717-.467.995-.753.288-.278.648-.513.847-.823.236-.292.503-.569.631-.878.074-.151.191-.296.24-.449l.125-.46c.106-.606.104-1.245-.174-1.836-.221-.604-.643-1.125-1.05-1.595-.456-.421-.915-.797-1.374-1.051a5.352 5.352 0 0 0-1.27-.503c-.343-.044-.684-.106-.903-.029l-.338.055z"></path></g><!----><g data-v-423bf9ae="" id="2f141b4d-f8e6-4491-8b98-4291bdf597df" fill="#391117" transform="matrix(0.7820271945869028,0,0,0.7820271945869028,59.84355847368289,202.15481385050168)"><path d="M7.83 3.92L7.48 3.92L1.89 3.92L0.70 3.92L0.70 4.19C0.70 4.34 0.80 4.42 0.98 4.44L1.12 4.44C1.19 4.44 1.29 4.45 1.43 4.45C1.57 4.45 1.72 4.47 1.89 4.47L1.89 13.26C1.72 13.26 1.57 13.27 1.43 13.27C1.29 13.27 1.19 13.29 1.12 13.29L0.98 13.29C0.80 13.30 0.70 13.38 0.70 13.54L0.70 13.82L1.89 13.82L2.60 13.82L3.78 13.82L3.78 13.54C3.78 13.38 3.70 13.30 3.51 13.29L3.37 13.29C3.30 13.29 3.21 13.27 3.07 13.27C2.93 13.27 2.77 13.26 2.60 13.26L2.60 9.27L6.30 9.27L6.30 8.67L2.60 8.67L2.60 4.51L7.21 4.51C7.24 5.18 7.27 5.56 7.27 5.63C7.28 5.85 7.38 5.96 7.57 5.96L7.91 5.96L7.91 3.92ZM18.52 6.73C18.02 6.73 17.57 6.83 17.18 7.00C16.79 7.17 16.45 7.41 16.17 7.71C15.89 8.02 15.69 8.40 15.55 8.85C15.41 9.30 15.33 9.79 15.33 10.33C15.33 10.88 15.41 11.37 15.55 11.80C15.69 12.24 15.89 12.63 16.17 12.94C16.45 13.24 16.79 13.48 17.18 13.65C17.57 13.82 18.02 13.90 18.52 13.90C19.03 13.90 19.46 13.82 19.85 13.65C20.24 13.48 20.58 13.24 20.85 12.94C21.11 12.63 21.34 12.24 21.48 11.80C21.62 11.37 21.69 10.88 21.69 10.33C21.69 9.79 21.62 9.30 21.48 8.85C21.34 8.40 21.11 8.02 20.85 7.71C20.58 7.41 20.24 7.17 19.85 7.00C19.46 6.83 19.03 6.73 18.52 6.73ZM18.52 13.38C18.10 13.38 17.74 13.31 17.43 13.17C17.12 13.03 16.86 12.82 16.65 12.56C16.44 12.29 16.30 11.97 16.18 11.59C16.07 11.21 16.03 10.79 16.03 10.33C16.03 9.87 16.07 9.45 16.18 9.07C16.30 8.69 16.44 8.37 16.65 8.11C16.86 7.84 17.12 7.62 17.43 7.48C17.74 7.34 18.10 7.27 18.52 7.27C18.94 7.27 19.29 7.34 19.60 7.48C19.91 7.62 20.17 7.84 20.38 8.11C20.59 8.37 20.75 8.69 20.85 9.07C20.94 9.45 21 9.87 21 10.33C21 10.79 20.94 11.21 20.85 11.59C20.75 11.97 20.59 12.29 20.38 12.56C20.17 12.82 19.91 13.03 19.60 13.17C19.29 13.31 18.94 13.38 18.52 13.38ZM34.44 6.80C34.26 6.76 34.08 6.73 33.87 6.73C33.32 6.73 32.86 6.89 32.48 7.21C32.10 7.53 31.81 7.98 31.58 8.54L31.53 7.07C31.53 6.99 31.50 6.93 31.47 6.90C31.44 6.87 31.39 6.86 31.30 6.86L30.95 6.86L30.95 6.86L29.95 6.86L29.95 7.13C29.95 7.31 30.04 7.36 30.21 7.38C30.30 7.38 30.38 7.38 30.95 7.41L30.95 13.26C30.38 13.29 30.30 13.29 30.21 13.29C30.04 13.30 29.95 13.36 29.95 13.54L29.95 13.82L30.95 13.82L31.61 13.82L31.61 13.82L32.62 13.82L32.62 13.54C32.62 13.36 32.52 13.30 32.35 13.29C32.27 13.29 32.19 13.29 31.61 13.26L31.61 9.30C31.82 8.68 32.10 8.20 32.44 7.88C32.77 7.56 33.21 7.39 33.74 7.39C33.88 7.39 34.01 7.41 34.12 7.42C34.23 7.43 34.34 7.45 34.41 7.48C34.50 7.50 34.54 7.53 34.59 7.55C34.65 7.56 34.69 7.57 34.72 7.57C34.80 7.57 34.85 7.53 34.86 7.46L34.94 7.00C34.79 6.92 34.62 6.85 34.44 6.80ZM61.53 3.92L61.46 3.92L60.90 3.92L60.79 3.92L59.39 3.92L59.39 4.19C59.39 4.34 59.49 4.42 59.67 4.44L59.78 4.44C59.84 4.44 59.91 4.45 60.02 4.45C60.13 4.45 60.26 4.47 60.40 4.47L57.81 8.64C57.74 8.75 57.68 8.85 57.64 8.95C57.60 9.04 57.55 9.16 57.51 9.25C57.47 9.16 57.43 9.04 57.39 8.95C57.34 8.85 57.29 8.75 57.22 8.64L54.61 4.47C54.75 4.47 54.88 4.45 54.99 4.45C55.10 4.45 55.19 4.44 55.24 4.44L55.34 4.44C55.52 4.42 55.62 4.34 55.62 4.19L55.62 3.92L54.22 3.92L54.11 3.92L53.55 3.92L53.48 3.92L53.03 3.92L53.03 4.19C53.03 4.34 53.13 4.42 53.31 4.44C53.55 4.45 53.73 4.47 53.83 4.47L57.15 9.73L57.15 13.26C56.98 13.26 56.83 13.27 56.69 13.27C56.55 13.27 56.45 13.29 56.38 13.29L56.25 13.29C56.07 13.30 55.97 13.38 55.97 13.54L55.97 13.82L57.15 13.82L57.86 13.82L59.04 13.82L59.04 13.54C59.04 13.38 58.95 13.30 58.77 13.29L58.63 13.29C58.56 13.29 58.46 13.27 58.32 13.27C58.18 13.27 58.03 13.26 57.86 13.26L57.86 9.73L61.18 4.47C61.29 4.47 61.46 4.45 61.70 4.44C61.88 4.42 61.98 4.34 61.98 4.19L61.98 3.92ZM71.64 6.73C71.13 6.73 70.69 6.83 70.29 7.00C69.90 7.17 69.57 7.41 69.29 7.71C69.01 8.02 68.81 8.40 68.67 8.85C68.53 9.30 68.45 9.79 68.45 10.33C68.45 10.88 68.53 11.37 68.67 11.80C68.81 12.24 69.01 12.63 69.29 12.94C69.57 13.24 69.90 13.48 70.29 13.65C70.69 13.82 71.13 13.90 71.64 13.90C72.14 13.90 72.58 13.82 72.97 13.65C73.36 13.48 73.70 13.24 73.96 12.94C74.23 12.63 74.45 12.24 74.59 11.80C74.73 11.37 74.80 10.88 74.80 10.33C74.80 9.79 74.73 9.30 74.59 8.85C74.45 8.40 74.23 8.02 73.96 7.71C73.70 7.41 73.36 7.17 72.97 7.00C72.58 6.83 72.14 6.73 71.64 6.73ZM71.64 13.38C71.22 13.38 70.85 13.31 70.55 13.17C70.24 13.03 69.97 12.82 69.76 12.56C69.55 12.29 69.41 11.97 69.30 11.59C69.19 11.21 69.15 10.79 69.15 10.33C69.15 9.87 69.19 9.45 69.30 9.07C69.41 8.69 69.55 8.37 69.76 8.11C69.97 7.84 70.24 7.62 70.55 7.48C70.85 7.34 71.22 7.27 71.64 7.27C72.06 7.27 72.41 7.34 72.72 7.48C73.02 7.62 73.29 7.84 73.50 8.11C73.71 8.37 73.86 8.69 73.96 9.07C74.06 9.45 74.12 9.87 74.12 10.33C74.12 10.79 74.06 11.21 73.96 11.59C73.86 11.97 73.71 12.29 73.50 12.56C73.29 12.82 73.02 13.03 72.72 13.17C72.41 13.31 72.06 13.38 71.64 13.38ZM89.84 13.29L89.77 13.29L89.66 13.29C89.61 13.29 89.54 13.27 89.45 13.27C89.35 13.27 89.24 13.26 89.11 13.26L89.11 6.85L88.44 6.86L87.43 6.86L87.43 7.13C87.43 7.28 87.53 7.36 87.71 7.38L87.78 7.38C87.81 7.38 87.85 7.39 87.89 7.39L88.10 7.39C88.20 7.39 88.31 7.41 88.44 7.41L88.44 12.08C88.13 12.49 87.77 12.81 87.37 13.05C86.98 13.27 86.56 13.40 86.11 13.40C85.50 13.40 85.04 13.20 84.74 12.84C84.45 12.46 84.29 11.96 84.29 11.30L84.29 6.85L83.62 6.86L82.61 6.86L82.61 7.13C82.61 7.28 82.71 7.36 82.89 7.38L82.96 7.38C82.99 7.38 83.03 7.39 83.08 7.39L83.29 7.39C83.38 7.39 83.50 7.41 83.62 7.41L83.62 11.30C83.62 11.70 83.68 12.07 83.78 12.39C83.87 12.71 84.01 12.99 84.21 13.22C84.41 13.44 84.63 13.62 84.92 13.75C85.22 13.87 85.55 13.93 85.95 13.93C86.46 13.93 86.94 13.80 87.36 13.57C87.78 13.33 88.16 13.01 88.48 12.60L88.54 13.64C88.54 13.76 88.62 13.82 88.75 13.82L89.11 13.82L90.12 13.82L90.12 13.54C90.12 13.38 90.02 13.30 89.84 13.29ZM102.93 6.80C102.75 6.76 102.56 6.73 102.35 6.73C101.81 6.73 101.35 6.89 100.97 7.21C100.59 7.53 100.30 7.98 100.07 8.54L100.02 7.07C100.02 6.99 99.99 6.93 99.96 6.90C99.93 6.87 99.88 6.86 99.79 6.86L99.44 6.86L99.44 6.86L98.43 6.86L98.43 7.13C98.43 7.31 98.53 7.36 98.70 7.38C98.78 7.38 98.87 7.38 99.44 7.41L99.44 13.26C98.87 13.29 98.78 13.29 98.70 13.29C98.53 13.30 98.43 13.36 98.43 13.54L98.43 13.82L99.44 13.82L100.10 13.82L100.10 13.82L101.11 13.82L101.11 13.54C101.11 13.36 101.01 13.30 100.84 13.29C100.76 13.29 100.67 13.29 100.10 13.26L100.10 9.30C100.31 8.68 100.59 8.20 100.93 7.88C101.26 7.56 101.70 7.39 102.23 7.39C102.37 7.39 102.49 7.41 102.61 7.42C102.72 7.43 102.83 7.45 102.90 7.48C102.98 7.50 103.03 7.53 103.08 7.55C103.14 7.56 103.18 7.57 103.21 7.57C103.29 7.57 103.33 7.53 103.35 7.46L103.43 7.00C103.28 6.92 103.11 6.85 102.93 6.80ZM129.61 12.21C129.58 12.18 129.54 12.15 129.50 12.15C129.47 12.15 129.46 12.15 129.43 12.17C129.42 12.18 129.39 12.21 129.36 12.22C129.16 12.40 128.95 12.56 128.76 12.70C128.56 12.84 128.35 12.94 128.11 13.03C127.88 13.13 127.62 13.20 127.34 13.24C127.06 13.29 126.76 13.31 126.41 13.31C125.85 13.31 125.30 13.22 124.82 13.01C124.33 12.81 123.93 12.52 123.58 12.14C123.23 11.76 122.93 11.28 122.74 10.74C122.54 10.19 122.44 9.56 122.44 8.86C122.44 8.18 122.54 7.56 122.74 7.01C122.95 6.47 123.23 6.01 123.59 5.61C123.96 5.24 124.39 4.94 124.89 4.73C125.40 4.52 125.94 4.42 126.55 4.42C127.44 4.42 128.27 4.56 129.00 4.89C129.04 5.78 129.08 6.30 129.08 6.41C129.09 6.64 129.18 6.75 129.37 6.75L129.71 6.75L129.71 4.51C128.53 4.03 127.47 3.81 126.55 3.81C125.83 3.81 125.19 3.92 124.59 4.17C124.00 4.42 123.47 4.76 123.05 5.21C122.61 5.66 122.29 6.19 122.05 6.80C121.81 7.42 121.70 8.11 121.70 8.86C121.70 9.63 121.83 10.32 122.05 10.95C122.28 11.58 122.60 12.10 123.00 12.54C123.41 12.99 123.90 13.33 124.47 13.57C125.05 13.80 125.66 13.93 126.35 13.93C126.76 13.93 127.13 13.90 127.48 13.83C127.82 13.76 128.14 13.66 128.44 13.54C128.72 13.41 128.98 13.26 129.22 13.09C129.46 12.91 129.68 12.73 129.89 12.50ZM144.70 13.29L144.63 13.29L144.52 13.29C144.48 13.29 144.41 13.27 144.31 13.27C144.21 13.27 144.10 13.26 143.98 13.26L143.98 6.85L143.30 6.86L142.30 6.86L142.30 7.13C142.30 7.28 142.39 7.36 142.58 7.38L142.65 7.38C142.67 7.38 142.72 7.39 142.76 7.39L142.97 7.39C143.07 7.39 143.18 7.41 143.30 7.41L143.30 12.08C143.00 12.49 142.63 12.81 142.24 13.05C141.85 13.27 141.43 13.40 140.98 13.40C140.36 13.40 139.90 13.20 139.61 12.84C139.31 12.46 139.16 11.96 139.16 11.30L139.16 6.85L138.49 6.86L137.48 6.86L137.48 7.13C137.48 7.28 137.58 7.36 137.76 7.38L137.83 7.38C137.86 7.38 137.90 7.39 137.94 7.39L138.15 7.39C138.25 7.39 138.36 7.41 138.49 7.41L138.49 11.30C138.49 11.70 138.54 12.07 138.64 12.39C138.74 12.71 138.88 12.99 139.08 13.22C139.27 13.44 139.50 13.62 139.79 13.75C140.08 13.87 140.42 13.93 140.81 13.93C141.33 13.93 141.81 13.80 142.23 13.57C142.65 13.33 143.02 13.01 143.35 12.60L143.40 13.64C143.40 13.76 143.49 13.82 143.61 13.82L143.98 13.82L144.98 13.82L144.98 13.54C144.98 13.38 144.89 13.30 144.70 13.29ZM157.82 11.06C157.71 10.86 157.57 10.71 157.39 10.57C157.21 10.43 157.00 10.32 156.77 10.23C156.55 10.15 156.30 10.05 156.06 9.98C155.82 9.91 155.58 9.83 155.34 9.76C155.12 9.69 154.91 9.59 154.73 9.49C154.55 9.39 154.41 9.27 154.29 9.13C154.18 8.99 154.13 8.81 154.13 8.58C154.13 8.40 154.15 8.23 154.24 8.08C154.32 7.92 154.43 7.77 154.59 7.64C154.73 7.52 154.91 7.43 155.12 7.36C155.33 7.29 155.55 7.25 155.81 7.25C156.17 7.25 156.53 7.31 156.91 7.43C156.93 7.60 156.94 7.77 156.95 7.92C156.97 8.08 156.97 8.19 156.98 8.27C157.00 8.36 157.00 8.43 157.00 8.44C157.01 8.67 157.11 8.78 157.30 8.78L157.64 8.78L157.64 7.11C156.91 6.86 156.30 6.75 155.79 6.75C155.44 6.75 155.12 6.80 154.84 6.90C154.56 7.00 154.31 7.14 154.11 7.31C153.92 7.48 153.76 7.69 153.65 7.91C153.54 8.13 153.50 8.37 153.50 8.62C153.50 8.92 153.55 9.16 153.66 9.35C153.78 9.55 153.92 9.70 154.10 9.84C154.28 9.98 154.48 10.09 154.71 10.18C154.94 10.26 155.18 10.35 155.43 10.42C155.67 10.49 155.90 10.57 156.14 10.64C156.37 10.71 156.58 10.81 156.76 10.92C156.94 11.03 157.09 11.16 157.21 11.31C157.32 11.47 157.37 11.65 157.37 11.89C157.37 12.10 157.33 12.29 157.26 12.49C157.18 12.68 157.07 12.84 156.91 12.98C156.76 13.12 156.58 13.23 156.35 13.31C156.13 13.40 155.88 13.44 155.58 13.44C155.05 13.44 154.60 13.37 154.22 13.22C154.21 13.03 154.20 12.87 154.18 12.71C154.17 12.56 154.17 12.43 154.15 12.35C154.14 12.26 154.14 12.19 154.14 12.18C154.13 11.96 154.03 11.84 153.83 11.84L153.50 11.84L153.50 13.54C154.17 13.79 154.85 13.93 155.55 13.93C155.95 13.93 156.28 13.87 156.59 13.76C156.90 13.65 157.15 13.50 157.36 13.30C157.57 13.10 157.72 12.89 157.84 12.63C157.95 12.36 158.00 12.08 158.00 11.77C158.00 11.49 157.93 11.26 157.82 11.06ZM168.46 13.93C168.76 13.93 169.04 13.86 169.32 13.75C169.58 13.64 169.81 13.48 169.99 13.29L169.81 12.98C169.76 12.94 169.74 12.92 169.69 12.92C169.67 12.92 169.61 12.94 169.55 12.99C169.50 13.05 169.43 13.09 169.34 13.15C169.26 13.20 169.15 13.26 169.02 13.31C168.90 13.37 168.77 13.38 168.60 13.38C168.46 13.38 168.32 13.36 168.21 13.31C168.10 13.27 168 13.20 167.92 13.12C167.83 13.03 167.76 12.92 167.71 12.78C167.65 12.64 167.64 12.49 167.64 12.29L167.64 7.57L169.83 7.57L169.83 7.07L167.64 7.07L167.64 4.41L167.31 4.41C167.26 4.41 167.23 4.44 167.20 4.47C167.17 4.49 167.15 4.54 167.15 4.58L166.98 7.07L165.79 7.15L165.79 7.41C165.79 7.46 165.80 7.49 165.83 7.52C165.86 7.55 165.91 7.57 165.97 7.57L166.96 7.57L166.96 12.33C166.96 12.88 167.09 13.27 167.36 13.54C167.62 13.80 167.99 13.93 168.46 13.93ZM181.24 6.73C180.74 6.73 180.29 6.83 179.90 7.00C179.51 7.17 179.17 7.41 178.89 7.71C178.61 8.02 178.42 8.40 178.28 8.85C178.14 9.30 178.05 9.79 178.05 10.33C178.05 10.88 178.14 11.37 178.28 11.80C178.42 12.24 178.61 12.63 178.89 12.94C179.17 13.24 179.51 13.48 179.90 13.65C180.29 13.82 180.74 13.90 181.24 13.90C181.75 13.90 182.18 13.82 182.57 13.65C182.97 13.48 183.30 13.24 183.57 12.94C183.83 12.63 184.06 12.24 184.20 11.80C184.34 11.37 184.41 10.88 184.41 10.33C184.41 9.79 184.34 9.30 184.20 8.85C184.06 8.40 183.83 8.02 183.57 7.71C183.30 7.41 182.97 7.17 182.57 7.00C182.18 6.83 181.75 6.73 181.24 6.73ZM181.24 13.38C180.82 13.38 180.46 13.31 180.15 13.17C179.84 13.03 179.58 12.82 179.37 12.56C179.16 12.29 179.02 11.97 178.91 11.59C178.79 11.21 178.75 10.79 178.75 10.33C178.75 9.87 178.79 9.45 178.91 9.07C179.02 8.69 179.16 8.37 179.37 8.11C179.58 7.84 179.84 7.62 180.15 7.48C180.46 7.34 180.82 7.27 181.24 7.27C181.66 7.27 182.01 7.34 182.32 7.48C182.63 7.62 182.90 7.84 183.11 8.11C183.32 8.37 183.47 8.69 183.57 9.07C183.67 9.45 183.72 9.87 183.72 10.33C183.72 10.79 183.67 11.21 183.57 11.59C183.47 11.97 183.32 12.29 183.11 12.56C182.90 12.82 182.63 13.03 182.32 13.17C182.01 13.31 181.66 13.38 181.24 13.38ZM203.45 13.29L203.36 13.29L203.27 13.29C203.22 13.29 203.15 13.27 203.06 13.27C202.96 13.27 202.83 13.26 202.71 13.26L202.71 9.37C202.71 8.95 202.65 8.57 202.55 8.25C202.45 7.92 202.31 7.64 202.12 7.42C201.92 7.20 201.68 7.03 201.40 6.92C201.12 6.80 200.83 6.75 200.48 6.75C200.24 6.75 199.99 6.78 199.77 6.85C199.54 6.92 199.33 7.01 199.14 7.15C198.94 7.29 198.76 7.46 198.60 7.67C198.45 7.88 198.34 8.13 198.25 8.43C198.14 7.90 197.95 7.48 197.64 7.18C197.33 6.89 196.92 6.75 196.42 6.75C196.20 6.75 195.99 6.76 195.79 6.83C195.59 6.89 195.41 6.99 195.23 7.10C195.06 7.21 194.89 7.36 194.74 7.52C194.59 7.67 194.45 7.84 194.31 8.04L194.25 7.03C194.24 6.92 194.17 6.86 194.04 6.86L193.68 6.86L192.67 6.86L192.67 7.13C192.67 7.28 192.75 7.36 192.93 7.38L193.02 7.38C193.05 7.38 193.07 7.39 193.12 7.39L193.33 7.39C193.42 7.39 193.55 7.41 193.68 7.41L193.68 13.26C193.51 13.26 193.37 13.29 193.26 13.29L193.03 13.29L192.93 13.29C192.75 13.30 192.67 13.38 192.67 13.54L192.67 13.82L193.68 13.82L194.33 13.82L195.34 13.82L195.34 13.54C195.34 13.38 195.26 13.30 195.08 13.29L194.99 13.29L194.89 13.29C194.85 13.29 194.78 13.27 194.68 13.27C194.59 13.27 194.46 13.26 194.33 13.26L194.33 8.55C194.59 8.15 194.88 7.84 195.20 7.62C195.52 7.39 195.87 7.28 196.25 7.28C196.77 7.28 197.16 7.45 197.43 7.81C197.69 8.18 197.83 8.69 197.83 9.37L197.83 13.82L198.51 13.82L198.51 13.82L199.51 13.82L199.51 13.54C199.51 13.38 199.42 13.30 199.23 13.29L199.16 13.29L199.05 13.29C199.01 13.29 198.94 13.27 198.84 13.27C198.74 13.27 198.63 13.26 198.51 13.26L198.51 9.37C198.51 9.02 198.55 8.72 198.65 8.46C198.74 8.19 198.88 7.97 199.05 7.80C199.22 7.63 199.42 7.49 199.64 7.41C199.86 7.32 200.10 7.28 200.34 7.28C200.89 7.28 201.31 7.46 201.60 7.81C201.89 8.18 202.05 8.68 202.05 9.37L202.05 13.82L202.71 13.82L203.71 13.82L203.71 13.54C203.71 13.38 203.63 13.30 203.45 13.29ZM230.10 12.21C230.08 12.18 230.03 12.15 229.99 12.15C229.96 12.15 229.95 12.15 229.92 12.17C229.91 12.18 229.88 12.21 229.85 12.22C229.66 12.40 229.45 12.56 229.25 12.70C229.05 12.84 228.84 12.94 228.61 13.03C228.37 13.13 228.12 13.20 227.84 13.24C227.56 13.29 227.25 13.31 226.90 13.31C226.34 13.31 225.79 13.22 225.32 13.01C224.83 12.81 224.42 12.52 224.07 12.14C223.72 11.76 223.43 11.28 223.23 10.74C223.03 10.19 222.94 9.56 222.94 8.86C222.94 8.18 223.03 7.56 223.23 7.01C223.44 6.47 223.72 6.01 224.08 5.61C224.45 5.24 224.88 4.94 225.39 4.73C225.89 4.52 226.44 4.42 227.04 4.42C227.93 4.42 228.76 4.56 229.49 4.89C229.53 5.78 229.57 6.30 229.57 6.41C229.59 6.64 229.67 6.75 229.87 6.75L230.20 6.75L230.20 4.51C229.03 4.03 227.96 3.81 227.04 3.81C226.32 3.81 225.68 3.92 225.08 4.17C224.49 4.42 223.96 4.76 223.54 5.21C223.10 5.66 222.78 6.19 222.54 6.80C222.31 7.42 222.19 8.11 222.19 8.86C222.19 9.63 222.32 10.32 222.54 10.95C222.77 11.58 223.09 12.10 223.50 12.54C223.90 12.99 224.39 13.33 224.97 13.57C225.54 13.80 226.16 13.93 226.84 13.93C227.25 13.93 227.63 13.90 227.98 13.83C228.31 13.76 228.63 13.66 228.93 13.54C229.21 13.41 229.47 13.26 229.71 13.09C229.95 12.91 230.17 12.73 230.38 12.50ZM245.85 13.29L245.77 13.29L245.67 13.29C245.63 13.29 245.56 13.27 245.46 13.27C245.36 13.27 245.24 13.26 245.11 13.26L245.11 9.37C245.11 8.96 245.07 8.60 244.97 8.27C244.87 7.95 244.73 7.67 244.54 7.45C244.34 7.22 244.10 7.06 243.81 6.93C243.52 6.80 243.18 6.75 242.80 6.75C242.28 6.75 241.82 6.86 241.40 7.10C241.00 7.34 240.63 7.66 240.31 8.05L240.31 3.64L239.64 3.64L238.63 3.64L238.63 3.91C238.63 4.06 238.73 4.14 238.91 4.16L238.98 4.16C239.01 4.16 239.05 4.17 239.09 4.17L239.30 4.17C239.40 4.17 239.51 4.19 239.64 4.19L239.64 13.26C239.48 13.26 239.34 13.29 239.23 13.29L238.99 13.29L238.91 13.29C238.73 13.30 238.63 13.38 238.63 13.54L238.63 13.82L239.64 13.82L240.31 13.82L241.32 13.82L241.32 13.54C241.32 13.38 241.22 13.30 241.04 13.29L240.97 13.29L240.86 13.29C240.81 13.29 240.74 13.27 240.65 13.27C240.55 13.27 240.44 13.26 240.31 13.26L240.31 8.60C240.62 8.19 240.97 7.87 241.36 7.63C241.75 7.39 242.17 7.28 242.63 7.28C243.25 7.28 243.71 7.46 244.01 7.83C244.30 8.20 244.45 8.71 244.45 9.37L244.45 13.82L245.11 13.82L246.12 13.82L246.12 13.54C246.12 13.38 246.04 13.30 245.85 13.29ZM257.36 6.73C256.87 6.73 256.42 6.83 256.03 7.00C255.64 7.17 255.32 7.41 255.05 7.71C254.79 8.02 254.58 8.39 254.44 8.81C254.30 9.23 254.21 9.69 254.21 10.19C254.21 10.78 254.30 11.31 254.45 11.77C254.60 12.24 254.81 12.61 255.09 12.94C255.37 13.26 255.71 13.50 256.10 13.66C256.49 13.83 256.93 13.90 257.40 13.90C257.67 13.90 257.94 13.89 258.19 13.83C258.44 13.78 258.69 13.71 258.92 13.62C259.14 13.54 259.35 13.44 259.53 13.31C259.71 13.19 259.87 13.06 259.98 12.92L259.80 12.70C259.77 12.66 259.71 12.63 259.66 12.63C259.62 12.63 259.53 12.66 259.43 12.74C259.34 12.82 259.20 12.91 259.01 13.01C258.85 13.10 258.62 13.17 258.37 13.26C258.12 13.34 257.81 13.38 257.46 13.38C257.07 13.38 256.72 13.31 256.40 13.17C256.07 13.03 255.81 12.84 255.58 12.57C255.36 12.31 255.19 11.97 255.07 11.58C254.94 11.19 254.88 10.71 254.88 10.19L254.88 10.07L259.91 10.07C259.98 10.07 260.02 10.05 260.05 10.01C260.08 9.97 260.11 9.90 260.11 9.80C260.11 9.31 260.04 8.88 259.90 8.50C259.76 8.12 259.57 7.78 259.32 7.53C259.08 7.28 258.79 7.08 258.45 6.94C258.12 6.80 257.75 6.73 257.36 6.73ZM257.38 7.24C257.70 7.24 257.98 7.29 258.24 7.41C258.51 7.52 258.73 7.67 258.92 7.88C259.10 8.09 259.25 8.33 259.35 8.62C259.45 8.92 259.50 9.25 259.50 9.63L254.91 9.63C254.95 9.27 255.04 8.93 255.16 8.64C255.29 8.34 255.46 8.09 255.67 7.88C255.88 7.67 256.13 7.52 256.41 7.41C256.69 7.29 257.01 7.24 257.38 7.24ZM271.32 6.73C270.83 6.73 270.38 6.83 269.99 7.00C269.60 7.17 269.28 7.41 269.01 7.71C268.74 8.02 268.53 8.39 268.39 8.81C268.25 9.23 268.17 9.69 268.17 10.19C268.17 10.78 268.25 11.31 268.41 11.77C268.56 12.24 268.77 12.61 269.05 12.94C269.33 13.26 269.67 13.50 270.06 13.66C270.45 13.83 270.89 13.90 271.36 13.90C271.63 13.90 271.89 13.89 272.15 13.83C272.40 13.78 272.65 13.71 272.87 13.62C273.10 13.54 273.31 13.44 273.49 13.31C273.67 13.19 273.83 13.06 273.94 12.92L273.76 12.70C273.73 12.66 273.67 12.63 273.62 12.63C273.57 12.63 273.49 12.66 273.39 12.74C273.29 12.82 273.15 12.91 272.97 13.01C272.80 13.10 272.58 13.17 272.33 13.26C272.08 13.34 271.77 13.38 271.42 13.38C271.03 13.38 270.68 13.31 270.35 13.17C270.03 13.03 269.77 12.84 269.54 12.57C269.32 12.31 269.15 11.97 269.02 11.58C268.90 11.19 268.84 10.71 268.84 10.19L268.84 10.07L273.87 10.07C273.94 10.07 273.98 10.05 274.01 10.01C274.04 9.97 274.06 9.90 274.06 9.80C274.06 9.31 273.99 8.88 273.85 8.50C273.71 8.12 273.53 7.78 273.28 7.53C273.04 7.28 272.75 7.08 272.41 6.94C272.08 6.80 271.71 6.73 271.32 6.73ZM271.33 7.24C271.66 7.24 271.94 7.29 272.20 7.41C272.47 7.52 272.69 7.67 272.87 7.88C273.06 8.09 273.21 8.33 273.31 8.62C273.41 8.92 273.46 9.25 273.46 9.63L268.87 9.63C268.91 9.27 269.00 8.93 269.12 8.64C269.25 8.34 269.42 8.09 269.63 7.88C269.84 7.67 270.09 7.52 270.37 7.41C270.65 7.29 270.97 7.24 271.33 7.24ZM286.85 11.06C286.73 10.86 286.59 10.71 286.41 10.57C286.23 10.43 286.02 10.32 285.80 10.23C285.57 10.15 285.32 10.05 285.08 9.98C284.84 9.91 284.61 9.83 284.37 9.76C284.14 9.69 283.93 9.59 283.75 9.49C283.57 9.39 283.43 9.27 283.32 9.13C283.21 8.99 283.15 8.81 283.15 8.58C283.15 8.40 283.18 8.23 283.26 8.08C283.35 7.92 283.46 7.77 283.61 7.64C283.75 7.52 283.93 7.43 284.14 7.36C284.35 7.29 284.58 7.25 284.83 7.25C285.19 7.25 285.56 7.31 285.94 7.43C285.95 7.60 285.96 7.77 285.98 7.92C285.99 8.08 285.99 8.19 286.01 8.27C286.02 8.36 286.02 8.43 286.02 8.44C286.03 8.67 286.13 8.78 286.33 8.78L286.66 8.78L286.66 7.11C285.94 6.86 285.32 6.75 284.82 6.75C284.47 6.75 284.14 6.80 283.86 6.90C283.58 7.00 283.33 7.14 283.14 7.31C282.94 7.48 282.79 7.69 282.67 7.91C282.56 8.13 282.52 8.37 282.52 8.62C282.52 8.92 282.58 9.16 282.69 9.35C282.80 9.55 282.94 9.70 283.12 9.84C283.30 9.98 283.50 10.09 283.74 10.18C283.96 10.26 284.20 10.35 284.45 10.42C284.69 10.49 284.93 10.57 285.17 10.64C285.39 10.71 285.60 10.81 285.78 10.92C285.96 11.03 286.12 11.16 286.23 11.31C286.34 11.47 286.40 11.65 286.40 11.89C286.40 12.10 286.36 12.29 286.29 12.49C286.20 12.68 286.09 12.84 285.94 12.98C285.78 13.12 285.60 13.23 285.38 13.31C285.15 13.40 284.90 13.44 284.61 13.44C284.07 13.44 283.63 13.37 283.25 13.22C283.23 13.03 283.22 12.87 283.21 12.71C283.19 12.56 283.19 12.43 283.18 12.35C283.16 12.26 283.16 12.19 283.16 12.18C283.15 11.96 283.05 11.84 282.86 11.84L282.52 11.84L282.52 13.54C283.19 13.79 283.88 13.93 284.58 13.93C284.97 13.93 285.31 13.87 285.61 13.76C285.92 13.65 286.17 13.50 286.38 13.30C286.59 13.10 286.75 12.89 286.86 12.63C286.97 12.36 287.03 12.08 287.03 11.77C287.03 11.49 286.96 11.26 286.85 11.06ZM298.26 6.73C297.77 6.73 297.32 6.83 296.93 7.00C296.53 7.17 296.21 7.41 295.95 7.71C295.68 8.02 295.47 8.39 295.33 8.81C295.19 9.23 295.11 9.69 295.11 10.19C295.11 10.78 295.19 11.31 295.34 11.77C295.50 12.24 295.71 12.61 295.99 12.94C296.27 13.26 296.60 13.50 297.00 13.66C297.39 13.83 297.82 13.90 298.30 13.90C298.56 13.90 298.83 13.89 299.08 13.83C299.33 13.78 299.59 13.71 299.81 13.62C300.03 13.54 300.24 13.44 300.43 13.31C300.61 13.19 300.76 13.06 300.87 12.92L300.69 12.70C300.66 12.66 300.61 12.63 300.55 12.63C300.51 12.63 300.43 12.66 300.33 12.74C300.23 12.82 300.09 12.91 299.91 13.01C299.74 13.10 299.52 13.17 299.26 13.26C299.01 13.34 298.70 13.38 298.35 13.38C297.96 13.38 297.61 13.31 297.29 13.17C296.97 13.03 296.70 12.84 296.48 12.57C296.25 12.31 296.09 11.97 295.96 11.58C295.83 11.19 295.78 10.71 295.78 10.19L295.78 10.07L300.80 10.07C300.87 10.07 300.92 10.05 300.94 10.01C300.97 9.97 301 9.90 301 9.80C301 9.31 300.93 8.88 300.79 8.50C300.65 8.12 300.47 7.78 300.22 7.53C299.98 7.28 299.68 7.08 299.35 6.94C299.01 6.80 298.65 6.73 298.26 6.73ZM298.27 7.24C298.59 7.24 298.87 7.29 299.14 7.41C299.40 7.52 299.63 7.67 299.81 7.88C299.99 8.09 300.15 8.33 300.24 8.62C300.34 8.92 300.40 9.25 300.40 9.63L295.81 9.63C295.85 9.27 295.93 8.93 296.06 8.64C296.18 8.34 296.35 8.09 296.56 7.88C296.77 7.67 297.02 7.52 297.30 7.41C297.58 7.29 297.91 7.24 298.27 7.24ZM314.26 12.70C314.23 12.66 314.17 12.63 314.12 12.63C314.06 12.63 314.01 12.66 313.92 12.74C313.84 12.82 313.71 12.91 313.57 13.01C313.43 13.10 313.24 13.17 313.01 13.26C312.79 13.34 312.49 13.38 312.16 13.38C311.79 13.38 311.46 13.31 311.16 13.17C310.87 13.03 310.62 12.85 310.41 12.59C310.20 12.33 310.03 12.01 309.92 11.63C309.81 11.26 309.75 10.82 309.75 10.33C309.75 9.86 309.81 9.44 309.92 9.06C310.03 8.68 310.20 8.36 310.41 8.09C310.62 7.83 310.88 7.62 311.19 7.48C311.50 7.34 311.85 7.27 312.26 7.27C312.61 7.27 313.00 7.35 313.45 7.50C313.46 7.69 313.46 7.87 313.47 8.04C313.49 8.20 313.50 8.33 313.52 8.43C313.53 8.53 313.53 8.58 313.53 8.60C313.54 8.82 313.64 8.93 313.84 8.93L314.17 8.93L314.17 7.18L313.81 7.07C313.57 7.00 313.28 6.92 312.96 6.85C312.63 6.78 312.38 6.75 312.21 6.75C311.71 6.75 311.28 6.82 310.88 7.00C310.49 7.18 310.16 7.42 309.89 7.74C309.62 8.06 309.43 8.44 309.29 8.88C309.15 9.31 309.06 9.80 309.06 10.33C309.06 10.89 309.13 11.40 309.29 11.84C309.43 12.29 309.64 12.66 309.90 12.96C310.17 13.27 310.49 13.51 310.86 13.66C311.22 13.83 311.61 13.92 312.06 13.92C312.33 13.92 312.58 13.89 312.82 13.83C313.05 13.78 313.28 13.72 313.49 13.64C313.70 13.55 313.87 13.44 314.03 13.31C314.20 13.19 314.33 13.06 314.44 12.92ZM328.26 13.29L328.16 13.29L327.94 13.29C327.84 13.29 327.73 13.27 327.61 13.27L327.61 9.28C327.61 8.89 327.57 8.55 327.47 8.23C327.38 7.91 327.24 7.64 327.05 7.42C326.87 7.20 326.63 7.03 326.35 6.92C326.07 6.79 325.75 6.73 325.37 6.73C324.87 6.73 324.42 6.83 324.02 7.01C323.61 7.20 323.23 7.48 322.87 7.84L322.98 8.05C323.02 8.13 323.09 8.18 323.19 8.18C323.26 8.18 323.36 8.12 323.46 8.02C323.55 7.92 323.69 7.84 323.86 7.73C324.03 7.62 324.21 7.52 324.45 7.42C324.69 7.32 324.97 7.28 325.30 7.28C325.85 7.28 326.27 7.45 326.55 7.80C326.83 8.15 326.96 8.64 326.96 9.28L326.96 10.01C326.17 10.02 325.50 10.09 324.94 10.21C324.38 10.32 323.92 10.47 323.55 10.65C323.19 10.84 322.94 11.06 322.77 11.31C322.60 11.56 322.52 11.83 322.52 12.12C322.52 12.45 322.57 12.73 322.67 12.95C322.78 13.17 322.92 13.36 323.09 13.50C323.26 13.64 323.47 13.75 323.69 13.82C323.92 13.89 324.14 13.93 324.38 13.93C324.66 13.93 324.93 13.90 325.16 13.85C325.40 13.79 325.61 13.71 325.82 13.61C326.03 13.51 326.23 13.38 326.42 13.23C326.61 13.08 326.79 12.91 326.98 12.73L327.08 13.62C327.11 13.75 327.21 13.82 327.35 13.82L327.36 13.82L327.61 13.82L328.54 13.82L328.54 13.54C328.54 13.38 328.44 13.30 328.26 13.29ZM326.96 12.26C326.79 12.43 326.63 12.60 326.47 12.74C326.30 12.88 326.12 13.01 325.92 13.12C325.72 13.23 325.51 13.30 325.29 13.36C325.07 13.41 324.81 13.44 324.55 13.44C324.37 13.44 324.18 13.43 324.02 13.37C323.85 13.31 323.71 13.24 323.58 13.13C323.46 13.02 323.34 12.88 323.27 12.71C323.19 12.54 323.16 12.35 323.16 12.11C323.16 11.86 323.23 11.63 323.39 11.44C323.54 11.24 323.76 11.09 324.07 10.95C324.38 10.81 324.77 10.70 325.25 10.61C325.72 10.53 326.30 10.47 326.96 10.46ZM343.21 13.29L343.14 13.29L343.07 13.29L342.92 13.29C342.85 13.29 342.76 13.27 342.68 13.27L339.95 10.30C339.89 10.25 339.85 10.19 339.79 10.14C339.74 10.08 339.67 10.05 339.60 10.01C339.65 9.98 339.70 9.94 339.74 9.90C339.78 9.86 339.84 9.81 339.88 9.77L342.37 7.41C342.45 7.41 342.52 7.39 342.59 7.39C342.66 7.39 342.72 7.38 342.78 7.38L342.87 7.38C343.06 7.36 343.14 7.28 343.14 7.13L343.14 6.85L342.41 6.85L342.13 6.85L340.98 6.85L340.98 7.13C340.98 7.28 341.08 7.36 341.26 7.38C341.28 7.38 341.39 7.38 341.61 7.39L339.21 9.69C339.14 9.76 339.07 9.80 339.01 9.81C338.95 9.83 338.90 9.84 338.83 9.84L338.51 9.84L338.51 3.64L337.83 3.64L336.83 3.64L336.83 3.91C336.83 4.06 336.92 4.14 337.11 4.16L337.18 4.16C337.20 4.16 337.25 4.17 337.29 4.17L337.50 4.17C337.60 4.17 337.71 4.19 337.83 4.19L337.83 13.26C337.68 13.26 337.54 13.29 337.43 13.29L337.19 13.29L337.11 13.29C336.92 13.30 336.83 13.38 336.83 13.54L336.83 13.82L337.83 13.82L338.51 13.82L339.51 13.82L339.51 13.54C339.51 13.38 339.42 13.30 339.23 13.29L339.16 13.29L339.05 13.29C339.01 13.29 338.94 13.27 338.84 13.27C338.74 13.27 338.63 13.26 338.51 13.26L338.51 10.30L338.81 10.30C338.95 10.30 339.05 10.32 339.12 10.35C339.19 10.37 339.26 10.44 339.35 10.53L342.27 13.65C342.33 13.71 342.37 13.75 342.43 13.78C342.48 13.80 342.52 13.82 342.59 13.82L342.64 13.82L343.18 13.82L343.49 13.82L343.49 13.54C343.49 13.38 343.39 13.30 343.21 13.29ZM354.30 6.73C353.81 6.73 353.36 6.83 352.97 7.00C352.58 7.17 352.25 7.41 351.99 7.71C351.72 8.02 351.51 8.39 351.37 8.81C351.23 9.23 351.15 9.69 351.15 10.19C351.15 10.78 351.23 11.31 351.39 11.77C351.54 12.24 351.75 12.61 352.03 12.94C352.31 13.26 352.65 13.50 353.04 13.66C353.43 13.83 353.86 13.90 354.34 13.90C354.61 13.90 354.87 13.89 355.12 13.83C355.38 13.78 355.63 13.71 355.85 13.62C356.08 13.54 356.29 13.44 356.47 13.31C356.65 13.19 356.80 13.06 356.92 12.92L356.73 12.70C356.71 12.66 356.65 12.63 356.59 12.63C356.55 12.63 356.47 12.66 356.37 12.74C356.27 12.82 356.13 12.91 355.95 13.01C355.78 13.10 355.56 13.17 355.31 13.26C355.05 13.34 354.75 13.38 354.40 13.38C354.00 13.38 353.65 13.31 353.33 13.17C353.01 13.03 352.74 12.84 352.52 12.57C352.30 12.31 352.13 11.97 352.00 11.58C351.88 11.19 351.82 10.71 351.82 10.19L351.82 10.07L356.85 10.07C356.92 10.07 356.96 10.05 356.99 10.01C357.01 9.97 357.04 9.90 357.04 9.80C357.04 9.31 356.97 8.88 356.83 8.50C356.69 8.12 356.51 7.78 356.26 7.53C356.02 7.28 355.73 7.08 355.39 6.94C355.05 6.80 354.69 6.73 354.30 6.73ZM354.31 7.24C354.63 7.24 354.91 7.29 355.18 7.41C355.45 7.52 355.67 7.67 355.85 7.88C356.03 8.09 356.19 8.33 356.29 8.62C356.38 8.92 356.44 9.25 356.44 9.63L351.85 9.63C351.89 9.27 351.97 8.93 352.10 8.64C352.23 8.34 352.39 8.09 352.60 7.88C352.81 7.67 353.07 7.52 353.35 7.41C353.63 7.29 353.95 7.24 354.31 7.24ZM369.82 11.06C369.71 10.86 369.57 10.71 369.39 10.57C369.21 10.43 369.00 10.32 368.77 10.23C368.55 10.15 368.30 10.05 368.06 9.98C367.82 9.91 367.58 9.83 367.35 9.76C367.12 9.69 366.91 9.59 366.73 9.49C366.55 9.39 366.41 9.27 366.30 9.13C366.18 8.99 366.13 8.81 366.13 8.58C366.13 8.40 366.16 8.23 366.24 8.08C366.32 7.92 366.44 7.77 366.59 7.64C366.73 7.52 366.91 7.43 367.12 7.36C367.33 7.29 367.56 7.25 367.81 7.25C368.17 7.25 368.54 7.31 368.91 7.43C368.93 7.60 368.94 7.77 368.96 7.92C368.97 8.08 368.97 8.19 368.98 8.27C369.00 8.36 369.00 8.43 369.00 8.44C369.01 8.67 369.11 8.78 369.31 8.78L369.64 8.78L369.64 7.11C368.91 6.86 368.30 6.75 367.79 6.75C367.44 6.75 367.12 6.80 366.84 6.90C366.56 7.00 366.31 7.14 366.11 7.31C365.92 7.48 365.76 7.69 365.65 7.91C365.54 8.13 365.50 8.37 365.50 8.62C365.50 8.92 365.55 9.16 365.67 9.35C365.78 9.55 365.92 9.70 366.10 9.84C366.28 9.98 366.48 10.09 366.72 10.18C366.94 10.26 367.18 10.35 367.43 10.42C367.67 10.49 367.91 10.57 368.14 10.64C368.37 10.71 368.58 10.81 368.76 10.92C368.94 11.03 369.10 11.16 369.21 11.31C369.32 11.47 369.38 11.65 369.38 11.89C369.38 12.10 369.33 12.29 369.26 12.49C369.18 12.68 369.07 12.84 368.91 12.98C368.76 13.12 368.58 13.23 368.35 13.31C368.13 13.40 367.88 13.44 367.58 13.44C367.05 13.44 366.60 13.37 366.23 13.22C366.21 13.03 366.20 12.87 366.18 12.71C366.17 12.56 366.17 12.43 366.16 12.35C366.14 12.26 366.14 12.19 366.14 12.18C366.13 11.96 366.03 11.84 365.83 11.84L365.50 11.84L365.50 13.54C366.17 13.79 366.86 13.93 367.56 13.93C367.95 13.93 368.28 13.87 368.59 13.76C368.90 13.65 369.15 13.50 369.36 13.30C369.57 13.10 369.73 12.89 369.84 12.63C369.95 12.36 370.01 12.08 370.01 11.77C370.01 11.49 369.94 11.26 369.82 11.06ZM397.46 3.92L396.83 3.92L395.61 3.92L395.61 4.19C395.61 4.34 395.71 4.42 395.89 4.44L396.03 4.44C396.10 4.44 396.21 4.45 396.35 4.45C396.49 4.45 396.66 4.47 396.83 4.47L396.83 12.22C396.83 12.35 396.83 12.49 396.84 12.63L390.43 4.05C390.39 3.99 390.36 3.95 390.32 3.93C390.28 3.92 390.24 3.91 390.17 3.91L389.82 3.91L388.63 3.91L388.63 4.19C388.63 4.34 388.72 4.42 388.91 4.44L389.05 4.44C389.12 4.44 389.21 4.45 389.35 4.45C389.49 4.45 389.65 4.47 389.82 4.47L389.82 13.26C389.65 13.26 389.49 13.27 389.35 13.27C389.21 13.27 389.12 13.29 389.05 13.29L388.91 13.29C388.72 13.30 388.63 13.38 388.63 13.54L388.63 13.82L389.82 13.82L390.43 13.82L391.65 13.82L391.65 13.54C391.65 13.38 391.55 13.30 391.37 13.29L391.23 13.29C391.16 13.29 391.03 13.27 390.89 13.27C390.75 13.27 390.60 13.26 390.43 13.26L390.43 5.49C390.43 5.36 390.43 5.22 390.42 5.08L396.86 13.68C396.93 13.78 397.00 13.82 397.11 13.82L397.46 13.82L397.46 4.47C397.63 4.47 397.77 4.45 397.91 4.45C398.05 4.45 398.16 4.44 398.23 4.44L398.36 4.44C398.54 4.42 398.64 4.34 398.64 4.19L398.64 3.92ZM409.65 6.73C409.16 6.73 408.72 6.83 408.32 7.00C407.93 7.17 407.61 7.41 407.34 7.71C407.08 8.02 406.87 8.39 406.73 8.81C406.59 9.23 406.50 9.69 406.50 10.19C406.50 10.78 406.59 11.31 406.74 11.77C406.90 12.24 407.11 12.61 407.39 12.94C407.67 13.26 408.00 13.50 408.39 13.66C408.79 13.83 409.22 13.90 409.70 13.90C409.96 13.90 410.23 13.89 410.48 13.83C410.73 13.78 410.98 13.71 411.21 13.62C411.43 13.54 411.64 13.44 411.82 13.31C412.01 13.19 412.16 13.06 412.27 12.92L412.09 12.70C412.06 12.66 412.01 12.63 411.95 12.63C411.91 12.63 411.82 12.66 411.73 12.74C411.63 12.82 411.49 12.91 411.31 13.01C411.14 13.10 410.91 13.17 410.66 13.26C410.41 13.34 410.10 13.38 409.75 13.38C409.36 13.38 409.01 13.31 408.69 13.17C408.37 13.03 408.10 12.84 407.88 12.57C407.65 12.31 407.48 11.97 407.36 11.58C407.23 11.19 407.18 10.71 407.18 10.19L407.18 10.07L412.20 10.07C412.27 10.07 412.31 10.05 412.34 10.01C412.37 9.97 412.40 9.90 412.40 9.80C412.40 9.31 412.33 8.88 412.19 8.50C412.05 8.12 411.87 7.78 411.61 7.53C411.38 7.28 411.08 7.08 410.75 6.94C410.41 6.80 410.05 6.73 409.65 6.73ZM409.67 7.24C409.99 7.24 410.27 7.29 410.54 7.41C410.80 7.52 411.03 7.67 411.21 7.88C411.39 8.09 411.54 8.33 411.64 8.62C411.74 8.92 411.80 9.25 411.80 9.63L407.20 9.63C407.25 9.27 407.33 8.93 407.46 8.64C407.58 8.34 407.75 8.09 407.96 7.88C408.17 7.67 408.42 7.52 408.70 7.41C408.98 7.29 409.30 7.24 409.67 7.24ZM423.61 6.73C423.12 6.73 422.67 6.83 422.28 7.00C421.89 7.17 421.57 7.41 421.30 7.71C421.04 8.02 420.83 8.39 420.69 8.81C420.55 9.23 420.46 9.69 420.46 10.19C420.46 10.78 420.55 11.31 420.70 11.77C420.85 12.24 421.06 12.61 421.34 12.94C421.62 13.26 421.96 13.50 422.35 13.66C422.74 13.83 423.18 13.90 423.65 13.90C423.92 13.90 424.19 13.89 424.44 13.83C424.69 13.78 424.94 13.71 425.17 13.62C425.39 13.54 425.60 13.44 425.78 13.31C425.96 13.19 426.12 13.06 426.23 12.92L426.05 12.70C426.02 12.66 425.96 12.63 425.91 12.63C425.87 12.63 425.78 12.66 425.68 12.74C425.59 12.82 425.45 12.91 425.26 13.01C425.10 13.10 424.87 13.17 424.62 13.26C424.37 13.34 424.06 13.38 423.71 13.38C423.32 13.38 422.97 13.31 422.65 13.17C422.32 13.03 422.06 12.84 421.83 12.57C421.61 12.31 421.44 11.97 421.32 11.58C421.19 11.19 421.13 10.71 421.13 10.19L421.13 10.07L426.16 10.07C426.23 10.07 426.27 10.05 426.30 10.01C426.33 9.97 426.36 9.90 426.36 9.80C426.36 9.31 426.29 8.88 426.15 8.50C426.01 8.12 425.82 7.78 425.57 7.53C425.33 7.28 425.04 7.08 424.70 6.94C424.37 6.80 424.00 6.73 423.61 6.73ZM423.63 7.24C423.95 7.24 424.23 7.29 424.49 7.41C424.76 7.52 424.98 7.67 425.17 7.88C425.35 8.09 425.50 8.33 425.60 8.62C425.70 8.92 425.75 9.25 425.75 9.63L421.16 9.63C421.20 9.27 421.29 8.93 421.41 8.64C421.54 8.34 421.71 8.09 421.92 7.88C422.13 7.67 422.38 7.52 422.66 7.41C422.94 7.29 423.26 7.24 423.63 7.24ZM441.18 13.54C441.18 13.38 441.10 13.30 440.92 13.29L440.85 13.29L440.75 13.29C440.71 13.29 440.64 13.27 440.55 13.27L440.24 13.27L440.24 3.63L439.59 3.63L438.58 3.63L438.58 3.91C438.58 4.06 438.68 4.14 438.86 4.16L438.93 4.16C438.96 4.16 438.98 4.17 439.03 4.17L439.25 4.17C439.35 4.17 439.46 4.19 439.59 4.19L439.59 7.76C439.33 7.42 439.04 7.17 438.69 7.00C438.34 6.82 437.93 6.73 437.46 6.73C436.97 6.73 436.53 6.83 436.16 7.01C435.78 7.20 435.47 7.46 435.20 7.78C434.94 8.11 434.76 8.50 434.62 8.93C434.48 9.37 434.42 9.84 434.42 10.35C434.42 11.54 434.66 12.43 435.13 13.02C435.61 13.61 436.28 13.90 437.14 13.90C437.65 13.90 438.12 13.79 438.54 13.54C438.96 13.29 439.31 12.95 439.61 12.53L439.68 13.64C439.70 13.76 439.77 13.82 439.88 13.82L440.24 13.82L441.18 13.82L441.18 13.61ZM439.59 12.01C439.29 12.43 438.96 12.77 438.58 13.01C438.20 13.24 437.79 13.37 437.33 13.37C436.62 13.37 436.06 13.13 435.68 12.64C435.30 12.15 435.11 11.38 435.11 10.35C435.11 9.88 435.15 9.48 435.26 9.10C435.37 8.72 435.53 8.39 435.74 8.12C435.95 7.85 436.20 7.63 436.51 7.48C436.81 7.32 437.18 7.25 437.58 7.25C437.99 7.25 438.37 7.34 438.69 7.50C439.01 7.67 439.32 7.95 439.59 8.34ZM453.98 11.06C453.87 10.86 453.73 10.71 453.54 10.57C453.36 10.43 453.15 10.32 452.93 10.23C452.70 10.15 452.45 10.05 452.21 9.98C451.98 9.91 451.74 9.83 451.50 9.76C451.28 9.69 451.07 9.59 450.88 9.49C450.70 9.39 450.56 9.27 450.45 9.13C450.34 8.99 450.28 8.81 450.28 8.58C450.28 8.40 450.31 8.23 450.39 8.08C450.48 7.92 450.59 7.77 450.74 7.64C450.88 7.52 451.07 7.43 451.28 7.36C451.49 7.29 451.71 7.25 451.96 7.25C452.33 7.25 452.69 7.31 453.07 7.43C453.08 7.60 453.10 7.77 453.11 7.92C453.12 8.08 453.12 8.19 453.14 8.27C453.15 8.36 453.15 8.43 453.15 8.44C453.17 8.67 453.26 8.78 453.46 8.78L453.80 8.78L453.80 7.11C453.07 6.86 452.45 6.75 451.95 6.75C451.60 6.75 451.28 6.80 451.00 6.90C450.72 7.00 450.46 7.14 450.27 7.31C450.07 7.48 449.92 7.69 449.81 7.91C449.69 8.13 449.65 8.37 449.65 8.62C449.65 8.92 449.71 9.16 449.82 9.35C449.93 9.55 450.07 9.70 450.25 9.84C450.44 9.98 450.63 10.09 450.87 10.18C451.09 10.26 451.33 10.35 451.58 10.42C451.82 10.49 452.06 10.57 452.30 10.64C452.52 10.71 452.73 10.81 452.91 10.92C453.10 11.03 453.25 11.16 453.36 11.31C453.47 11.47 453.53 11.65 453.53 11.89C453.53 12.10 453.49 12.29 453.42 12.49C453.33 12.68 453.22 12.84 453.07 12.98C452.91 13.12 452.73 13.23 452.51 13.31C452.28 13.40 452.03 13.44 451.74 13.44C451.21 13.44 450.76 13.37 450.38 13.22C450.37 13.03 450.35 12.87 450.34 12.71C450.32 12.56 450.32 12.43 450.31 12.35C450.30 12.26 450.30 12.19 450.30 12.18C450.28 11.96 450.18 11.84 449.99 11.84L449.65 11.84L449.65 13.54C450.32 13.79 451.01 13.93 451.71 13.93C452.10 13.93 452.44 13.87 452.75 13.76C453.05 13.65 453.31 13.50 453.52 13.30C453.73 13.10 453.88 12.89 453.99 12.63C454.10 12.36 454.16 12.08 454.16 11.77C454.16 11.49 454.09 11.26 453.98 11.06Z"></path></g></svg>